<?xml version="1.0" standalone="no"?>
<!DOCTYPE svg PUBLIC "-//W3C//DTD SVG 20010904//EN"
 "http://www.w3.org/TR/2001/REC-SVG-20010904/DTD/svg10.dtd">
<svg version="1.0" xmlns="http://www.w3.org/2000/svg"
 width="1200.000000pt" height="1600.000000pt" viewBox="0 0 1200.000000 1600.000000"
 preserveAspectRatio="xMidYMid meet">

<g transform="translate(0.000000,1600.000000) scale(0.100000,-0.100000)"
fill="#000000" stroke="none">
<path d="M0 8000 l0 -8000 6000 0 6000 0 0 8000 0 8000 -6000 0 -6000 0 0
-8000z m6138 7388 c15 -15 15 -45 0 -54 -7 -5 -9 -1 -6 13 5 20 -8 32 -52 46
-8 3 -1 6 16 6 16 1 35 -4 42 -11z m-5064 -2074 c9 -3 16 -17 16 -30 0 -27
-15 -32 -24 -8 -4 9 -13 14 -21 10 -18 -7 -20 5 -3 22 14 14 12 14 32 6z
m-164 -209 c0 -17 -6 -25 -17 -25 -34 -1 -73 -47 -73 -88 0 -10 16 -40 36 -65
44 -57 55 -117 30 -166 -31 -59 -131 -99 -124 -48 2 14 11 23 25 25 29 4 63
48 63 81 0 14 -17 50 -37 80 -61 89 -49 175 32 215 45 23 65 20 65 -9z m2544
-47 c12 -17 16 -50 16 -144 0 -151 -3 -156 -115 -178 -231 -45 -444 -240 -510
-469 -12 -42 -16 -86 -13 -156 3 -91 6 -103 45 -182 27 -55 80 -131 152 -219
123 -150 235 -309 273 -385 32 -64 74 -193 87 -269 16 -87 13 -283 -4 -366
-38 -179 -118 -324 -254 -461 l-96 -96 75 -49 c64 -42 77 -56 88 -91 12 -37
11 -46 -7 -87 -31 -71 -91 -155 -120 -171 -30 -15 -23 -18 -140 53 -181 112
-381 154 -555 117 -118 -25 -209 -77 -306 -174 -94 -95 -154 -197 -187 -321
-23 -87 -23 -253 0 -340 23 -87 80 -205 120 -249 30 -33 33 -35 49 -20 12 12
13 20 5 28 -8 8 -8 11 0 11 6 0 9 10 6 23 -4 19 -3 20 7 4 6 -9 8 -22 5 -27
-3 -6 -1 -10 5 -10 7 0 10 -7 6 -15 -3 -8 -1 -15 5 -15 5 0 12 14 16 31 5 27
7 29 16 14 8 -14 11 -15 18 -4 7 12 9 11 9 -1 0 -8 -5 -22 -10 -30 -8 -12 -10
-12 -10 -1 0 8 -3 12 -6 8 -3 -3 -3 -11 1 -17 5 -8 10 -8 20 0 8 7 24 9 36 5
16 -5 18 -9 9 -15 -8 -5 19 -7 58 -6 40 2 72 -1 72 -6 0 -5 4 -7 9 -3 5 3 13
0 16 -6 4 -5 13 -8 21 -5 7 3 17 -2 22 -10 8 -14 10 -14 25 0 21 21 44 22 27
1 -13 -16 -8 -18 27 -9 12 3 24 13 26 23 3 10 5 7 6 -9 2 -25 2 -25 11 -2 9
22 30 31 30 12 0 -5 4 -10 10 -10 5 0 7 7 4 15 -4 8 -1 15 6 15 6 0 8 5 4 11
-3 6 7 4 23 -4 20 -11 34 -12 46 -6 13 8 15 6 11 -6 -5 -11 -2 -14 10 -9 9 3
16 11 16 18 0 6 9 12 20 12 11 0 20 -4 20 -9 0 -4 5 -5 10 -2 6 4 7 11 4 17
-5 7 2 9 21 4 18 -5 35 -2 51 9 21 14 24 14 24 0 0 -18 36 -20 43 -2 2 7 5 69
6 137 3 172 0 170 178 170 129 0 135 -1 158 -25 24 -23 25 -28 25 -174 0 -82
4 -152 9 -155 5 -4 7 2 4 13 -3 11 2 21 11 24 10 4 16 1 16 -9 0 -13 7 -15 34
-10 22 4 37 2 41 -5 5 -8 1 -9 -14 -4 -11 3 -21 2 -21 -3 0 -5 9 -12 21 -15
15 -4 23 1 32 21 7 15 21 28 32 30 l20 4 -20 -17 c-11 -9 -14 -13 -6 -9 10 5
12 1 7 -17 -3 -13 -3 -18 0 -11 3 6 19 12 35 12 18 0 28 4 24 10 -3 6 -2 10 4
10 5 0 13 -4 16 -10 4 -6 14 -5 27 3 16 9 22 9 25 0 6 -17 18 -16 37 3 15 14
17 14 22 0 8 -21 33 -20 57 2 11 9 17 11 13 4 -6 -10 -3 -13 10 -10 11 2 18
11 16 20 -1 9 3 20 9 24 9 5 10 -2 6 -24 -4 -19 -2 -32 3 -32 6 0 10 250 10
694 0 417 4 705 10 720 17 46 40 47 722 44 l637 -3 23 -23 c21 -21 23 -33 26
-139 3 -132 -7 -175 -44 -192 -18 -8 -169 -11 -519 -11 l-495 0 0 -226 0 -225
496 3 496 3 19 -24 c17 -20 19 -40 19 -160 -1 -105 -4 -140 -16 -156 -14 -19
-28 -20 -514 -23 l-500 -3 0 -134 c0 -96 3 -135 12 -135 6 0 9 3 5 6 -9 9 18
33 34 31 8 -2 20 -6 27 -10 6 -5 12 -4 12 1 0 6 14 15 32 21 24 9 34 8 40 -1
5 -9 8 -9 8 -1 0 19 41 2 50 -21 7 -18 9 -18 9 -3 1 11 5 15 13 11 8 -5 9 0 6
14 -4 12 -2 25 3 28 5 3 9 -4 9 -15 0 -17 4 -19 23 -12 28 11 58 6 68 -11 6
-9 9 -8 10 7 l0 20 9 -20 c8 -19 9 -19 9 3 1 13 5 21 11 17 5 -3 7 -12 4 -20
-7 -18 35 -17 57 2 14 12 19 12 34 -3 9 -9 32 -18 51 -20 32 -3 34 -1 28 18
-6 21 -6 21 10 5 10 -9 18 -17 19 -17 1 0 17 -4 35 -9 28 -8 32 -7 30 7 -2 10
3 17 12 17 9 0 14 -7 12 -17 -2 -10 2 -18 8 -18 6 0 8 -6 4 -12 -4 -7 -3 -9 2
-5 4 4 9 17 9 27 0 11 5 19 10 17 6 -1 10 -10 9 -20 0 -15 2 -15 20 -4 12 7
31 12 43 11 15 -1 20 3 15 14 -3 9 -1 13 5 9 6 -4 14 -1 16 5 3 7 6 3 6 -10 1
-13 5 -20 11 -17 6 4 8 10 5 15 -3 5 -1 11 4 15 6 3 15 -5 22 -17 15 -27 39
-53 39 -41 0 5 -5 14 -12 21 -7 7 -9 12 -5 12 4 0 -2 16 -13 35 -19 34 -19 35
0 23 10 -7 17 -15 14 -19 -2 -4 2 -12 10 -18 10 -8 16 -8 25 3 9 11 9 15 -1
20 -7 3 2 5 20 3 22 -3 32 1 32 10 0 8 5 11 10 8 6 -4 8 -12 4 -18 -3 -7 4 -1
15 12 21 23 21 23 21 2 0 -12 5 -21 11 -21 7 0 9 10 7 24 -4 18 -1 22 13 19
10 -3 20 -11 23 -19 7 -18 36 -7 37 15 0 10 2 11 6 4 7 -18 33 -16 33 2 0 8 7
15 15 15 8 0 15 -7 15 -15 0 -8 4 -15 9 -15 5 0 7 8 4 19 -3 10 0 22 6 25 7 4
8 1 5 -8 -5 -13 1 -16 28 -16 19 0 40 -6 47 -12 10 -11 11 -10 6 5 -6 13 -2
17 19 17 14 0 26 -4 26 -10 0 -5 5 -10 10 -10 6 0 10 7 10 16 0 13 3 14 14 5
8 -7 15 -8 18 -2 1 5 11 3 22 -5 11 -7 18 -15 15 -17 -2 -2 -38 -24 -79 -49
-41 -26 -96 -68 -121 -95 -55 -58 -141 -178 -132 -186 3 -4 0 -20 -7 -36 -6
-17 -12 -82 -13 -152 -2 -147 11 -136 -175 -138 -139 -1 -147 -4 -289 -98
-363 -242 -649 -618 -794 -1048 -26 -78 -45 -121 -47 -108 -5 35 73 257 138
391 159 324 447 649 723 814 37 22 67 42 67 44 0 2 -191 4 -425 4 -333 0 -425
-3 -425 -12 0 -7 -12 -14 -26 -15 -15 0 -29 -5 -33 -10 -3 -5 -15 -13 -26 -16
-19 -7 -19 -7 -1 7 17 14 17 15 -8 12 -14 -1 -29 -6 -34 -11 -4 -4 -1 -5 7 0
10 5 12 4 7 -4 -4 -6 -11 -9 -16 -6 -17 10 -91 -15 -83 -28 4 -7 0 -7 -10 2
-9 7 -17 10 -17 5 0 -4 -5 -3 -12 4 -14 14 -62 16 -53 2 3 -5 1 -10 -4 -10 -6
0 -11 5 -11 10 0 11 -49 -17 -62 -35 -5 -6 -12 -5 -18 5 -8 12 -10 11 -10 -7
0 -16 -6 -23 -17 -22 -11 0 -13 3 -5 6 19 7 14 19 -8 19 -11 0 -20 -4 -20 -9
0 -4 -4 -6 -9 -2 -5 3 -17 -2 -25 -11 -9 -8 -16 -10 -16 -4 0 6 -12 4 -31 -6
-26 -13 -33 -14 -41 -2 -7 9 -8 7 -4 -8 4 -14 2 -21 -8 -21 -8 0 -12 7 -9 16
3 11 0 10 -11 -3 -9 -11 -16 -25 -16 -30 0 -6 -4 -5 -9 2 -7 11 -11 11 -24 -2
-8 -9 -22 -16 -30 -16 -7 0 -17 -3 -21 -7 -4 -4 -19 -9 -34 -11 -15 -2 -28 -7
-30 -13 -2 -5 -11 -5 -22 1 -16 9 -45 4 -94 -16 -14 -5 -17 -4 -12 4 9 15 7
15 -33 1 -17 -6 -31 -15 -31 -20 0 -5 -7 -9 -16 -9 -8 0 -13 4 -10 9 8 13 -35
21 -55 10 -10 -5 -29 -9 -43 -9 -14 0 -26 -6 -27 -12 0 -10 -2 -10 -6 -1 -3 9
-10 10 -22 3 -10 -5 -21 -6 -25 -3 -3 3 -6 2 -6 -4 0 -5 -16 -8 -35 -7 -22 2
-35 -1 -35 -9 0 -8 -4 -7 -10 3 -7 12 -12 12 -28 -4 -19 -17 -21 -17 -31 1 -6
10 -11 12 -11 6 0 -19 -28 -16 -32 4 -3 15 -4 15 -20 0 -9 -9 -18 -12 -20 -7
-2 5 -20 12 -42 14 -21 3 -47 8 -57 11 -11 4 -19 2 -19 -4 0 -5 -18 -9 -40 -9
-22 0 -40 4 -40 10 0 5 -8 4 -19 -1 -10 -6 -21 -7 -25 -3 -4 3 -11 0 -16 -8
-9 -13 -10 -13 -10 0 0 8 -11 20 -25 27 -14 6 -23 7 -20 3 3 -5 1 -11 -4 -15
-5 -3 -14 2 -19 10 -4 9 -25 18 -45 20 -20 1 -35 0 -32 -5 2 -4 -15 -5 -38 -3
-54 6 -58 6 -84 -2 -17 -5 -23 -3 -23 8 0 9 -7 13 -17 11 -10 -3 -46 -1 -80 4
-35 5 -63 5 -63 0 0 -13 -28 -9 -32 4 -3 9 -28 12 -81 11 -42 -1 -79 2 -82 8
-4 5 -11 6 -18 2 -16 -10 -67 -11 -61 -1 5 7 -42 13 -74 9 -8 -1 -19 2 -25 7
-7 4 -19 8 -27 7 -8 0 -18 4 -22 10 -4 5 -8 1 -8 -10 0 -15 -2 -17 -9 -6 -5 7
-14 10 -20 7 -6 -4 -11 -1 -11 6 0 9 -3 9 -10 -2 -9 -13 -10 -13 -11 0 0 10
-3 8 -9 -5 -7 -17 -9 -18 -9 -2 -1 16 -3 16 -31 2 -25 -13 -30 -13 -30 -1 0 9
-7 12 -20 9 -11 -3 -20 -1 -20 5 0 6 -8 9 -19 7 -14 -3 -18 1 -14 16 4 15 2
18 -12 13 -10 -4 -20 -1 -25 6 -7 11 -11 11 -24 0 -9 -7 -20 -10 -24 -6 -4 4
4 16 18 26 14 11 20 20 14 20 -5 0 -19 -7 -30 -15 -28 -21 -35 -18 -29 13 5
22 4 24 -5 10 -18 -28 -30 -21 -23 14 5 27 4 30 -12 25 -10 -4 -24 -2 -31 4
-7 6 -18 8 -24 4 -5 -3 -10 -2 -10 3 0 6 7 13 16 16 9 3 14 11 12 18 -5 14
-38 20 -38 7 0 -5 -4 -9 -10 -9 -23 0 -7 20 22 28 l33 9 -29 8 c-19 5 -31 4
-36 -5 -11 -19 -40 -21 -40 -4 0 7 6 11 14 8 8 -3 17 -1 21 5 3 6 16 12 28 12
17 1 18 2 5 6 -10 2 -18 9 -18 14 0 6 -4 7 -10 4 -6 -3 -10 3 -10 15 0 17 3
19 19 10 26 -14 31 -13 31 6 0 8 4 13 9 10 16 -10 43 31 36 56 -4 16 -3 19 3
9 7 -10 12 -7 21 15 l11 29 -5 -28 c-4 -19 -2 -26 5 -22 5 3 10 15 10 26 0 13
6 19 16 17 10 -2 19 4 21 12 4 12 2 12 -5 2 -7 -11 -11 -10 -20 1 -12 14 -6
17 43 18 18 0 19 1 3 10 -10 6 -18 18 -17 27 0 10 3 12 6 5 8 -21 25 -14 18 7
-4 11 -2 20 4 20 6 0 10 -3 10 -7 -4 -23 3 -33 24 -32 21 0 21 1 2 9 -11 5
-14 9 -6 9 11 1 11 4 1 16 -11 13 -10 14 4 9 11 -4 16 -2 14 7 -2 9 4 13 17
11 16 -3 17 -1 8 9 -10 10 -15 9 -28 -1 -9 -8 -19 -9 -23 -4 -4 5 -6 8 -3 7 2
-1 12 2 23 8 15 8 24 7 37 -5 18 -17 36 -22 27 -8 -2 4 3 16 11 27 15 20 15
20 8 -2 -7 -26 0 -29 20 -9 8 7 11 17 7 21 -4 5 -2 5 5 2 6 -4 10 -15 8 -25
-1 -9 0 -11 2 -4 3 6 9 12 14 12 6 0 7 6 3 13 -4 6 1 4 12 -5 19 -16 21 -16
38 7 14 19 22 22 32 15 8 -8 14 -8 19 0 3 5 1 10 -4 10 -6 0 -11 5 -11 10 0
14 27 12 34 -2 3 -7 3 -3 0 9 -4 19 -2 22 12 16 14 -5 16 -2 12 19 -4 21 -1
24 14 20 10 -2 18 -9 18 -14 0 -5 -4 -6 -10 -3 -5 3 -10 2 -10 -3 0 -16 32
-24 44 -11 8 9 8 10 -1 5 -7 -4 -13 -2 -13 3 0 6 4 11 10 11 5 0 7 7 4 15 -4
8 -2 15 4 15 15 0 21 37 8 50 -8 8 -7 9 7 4 11 -4 16 -13 12 -24 -3 -10 -1
-21 5 -25 10 -6 14 13 11 45 -1 9 6 6 18 -9 10 -14 16 -32 13 -40 -5 -14 -3
-14 11 -2 16 12 16 16 2 31 -8 9 -12 19 -9 22 3 4 -1 19 -9 35 -25 49 -56 185
-67 291 -35 352 125 711 413 928 126 94 381 194 498 194 75 0 195 32 287 76
76 37 107 59 175 127 131 130 191 267 190 427 -2 158 -50 257 -238 490 -183
227 -249 331 -293 470 -31 95 -42 171 -42 279 0 253 100 490 282 673 160 160
409 274 605 277 53 1 64 -2 77 -21z m-1827 -28 c91 -55 87 -201 -7 -251 -90
-49 -196 4 -216 107 -8 45 26 118 68 144 43 26 113 26 155 0z m643 -87 c4 -87
8 -104 25 -117 27 -21 58 -20 86 3 21 17 24 29 27 120 4 97 5 102 26 99 19 -3
21 -10 24 -95 3 -106 -9 -142 -61 -173 -62 -38 -145 -12 -173 55 -14 36 -20
196 -7 209 4 4 16 6 28 4 18 -3 20 -12 25 -105z m-112 -479 c21 -14 22 -22 22
-159 0 -143 0 -144 -26 -164 -26 -21 -36 -21 -525 -21 l-499 0 0 -225 0 -225
494 0 495 0 20 -26 c19 -24 21 -40 21 -156 0 -124 -1 -130 -25 -153 l-24 -25
-491 0 -490 0 0 -225 0 -224 531 -3 531 -3 19 -24 c17 -20 19 -40 19 -156 0
-116 -2 -136 -19 -156 l-19 -24 -683 -3 c-601 -2 -685 -1 -705 13 l-24 15 0
965 c0 863 2 965 16 979 14 14 89 16 677 16 584 0 665 -2 685 -16z m6225 -61
c8 -10 56 -110 105 -223 79 -180 144 -324 242 -535 15 -33 58 -123 95 -200
149 -312 416 -931 428 -993 5 -25 2 -37 -13 -52 -20 -20 -36 -20 -920 -20
-887 0 -900 0 -920 20 -11 11 -20 29 -20 40 0 10 109 266 241 567 133 301 265
602 294 668 247 566 318 722 332 733 26 19 117 16 136 -5z m-3183 -53 c5 -8
10 -80 10 -159 0 -121 -3 -147 -17 -163 -15 -17 -38 -18 -305 -18 l-288 0 0
-798 c0 -766 -1 -800 -19 -816 -16 -14 -39 -16 -167 -14 -147 3 -149 3 -161
28 -10 20 -13 198 -13 813 l0 787 -290 0 c-278 0 -290 1 -300 20 -6 12 -9 77
-8 167 3 146 3 148 28 160 20 10 181 12 773 11 652 -3 749 -5 757 -18z m1366
9 c250 -44 453 -235 518 -485 21 -80 21 -247 0 -328 -38 -148 -141 -298 -266
-386 -39 -27 -76 -50 -82 -50 -6 0 -17 -4 -25 -9 -11 -7 5 -44 81 -183 53 -95
112 -204 133 -243 21 -38 55 -101 77 -138 39 -70 48 -117 26 -135 -18 -14
-257 -26 -288 -14 -47 18 -75 61 -240 361 l-165 300 -162 1 -163 0 0 -319 c0
-386 17 -351 -171 -351 -110 0 -130 3 -150 19 l-24 19 -3 481 -3 481 245 2
245 3 -230 415 c-303 546 -301 541 -287 557 13 17 841 19 934 2z m3438 -19
c21 -22 152 -202 810 -1111 l171 -236 5 661 c3 364 9 669 13 678 14 28 64 38
188 35 104 -2 121 -4 139 -23 20 -20 20 -25 20 -974 0 -872 -1 -955 -17 -972
-14 -16 -34 -18 -168 -18 l-151 0 -26 28 c-22 23 -472 648 -912 1267 l-121
170 -3 -714 c-2 -647 -4 -716 -19 -733 -14 -16 -33 -18 -156 -18 -117 0 -144
3 -159 17 -17 15 -18 58 -18 967 0 1031 -2 988 53 999 12 3 91 4 174 4 149 -2
153 -3 177 -27z m1660 -336 c3 -8 2 -12 -4 -9 -6 3 -10 10 -10 16 0 14 7 11
14 -7z m13 -46 c-3 -8 -6 -5 -6 6 -1 11 2 17 5 13 3 -3 4 -12 1 -19z m-7769
-470 c15 -15 16 -54 2 -63 -5 -3 -10 -2 -10 4 0 6 -10 20 -22 31 -19 18 -20
22 -8 30 20 13 24 12 38 -2z m5682 -1218 c235 -36 418 -123 579 -276 143 -135
247 -310 297 -499 23 -85 27 -122 28 -250 1 -156 -10 -225 -56 -358 -101 -297
-365 -549 -670 -641 -111 -34 -194 -46 -309 -46 -720 0 -1218 706 -978 1386
110 313 370 559 686 649 150 43 294 55 423 35z m-3629 -47 c15 -9 33 -30 39
-46 6 -19 10 -245 11 -626 0 -366 4 -587 9 -573 5 12 7 30 4 40 -3 9 2 5 11
-10 16 -28 49 -40 39 -14 -3 9 1 13 13 13 10 -1 21 -11 25 -22 5 -16 6 -14 8
10 1 26 3 27 10 10 5 -11 9 -14 9 -7 1 7 6 10 11 7 9 -6 14 8 11 28 0 4 4 7 9
7 6 0 10 -8 10 -17 1 -16 2 -17 13 -2 11 14 14 15 26 2 11 -12 15 -12 22 -2 4
8 3 20 -4 28 -9 11 -4 10 21 -3 17 -9 32 -12 32 -7 0 5 9 11 20 14 11 3 20 1
20 -4 0 -5 4 -9 10 -9 5 0 7 7 3 16 -4 12 0 14 21 8 27 -6 60 11 50 27 -7 12
23 11 47 -2 16 -8 25 -7 38 5 11 10 26 14 37 10 18 -6 18 -6 -1 10 -18 16 -19
17 -1 12 11 -4 24 0 33 11 8 10 12 12 8 6 -3 -7 -2 -13 3 -13 15 0 22 26 22
76 l0 44 240 0 c273 0 252 -11 190 100 -20 36 -54 97 -74 135 -21 39 -119 218
-218 398 -140 253 -178 331 -169 340 9 9 129 12 464 12 409 0 459 -2 522 -19
169 -45 315 -157 406 -313 98 -168 112 -412 32 -591 -64 -145 -182 -274 -306
-335 l-45 -22 111 -207 c84 -156 117 -208 131 -208 14 0 16 -3 7 -14 -9 -10
-5 -24 15 -61 25 -44 29 -46 58 -41 17 3 72 9 122 12 78 6 97 4 138 -14 39
-18 50 -29 68 -68 20 -46 20 -49 3 -108 -20 -73 -59 -143 -137 -246 -32 -43
-58 -82 -58 -87 0 -5 27 -69 61 -142 33 -73 58 -139 55 -148 -5 -12 -30 -14
-141 -12 -75 2 -139 6 -144 9 -5 3 10 49 34 102 l43 98 -77 -71 c-85 -79 -378
-292 -471 -344 -32 -17 7 13 90 71 272 188 460 349 492 422 12 25 26 42 36 42
23 0 124 137 169 230 81 166 33 255 -137 253 -74 0 -160 -17 -160 -31 1 -4 7
-18 15 -32 22 -39 19 -77 -9 -96 -21 -13 -49 -15 -160 -12 -126 3 -136 5 -160
27 -26 25 -33 25 -101 -3 -34 -14 -37 -14 -20 -1 10 8 34 21 52 27 18 7 33 14
33 18 -1 11 -307 552 -323 571 -17 20 -67 27 -67 9 0 -5 5 -10 10 -10 6 0 10
-5 10 -12 0 -9 -3 -9 -11 -1 -17 17 -61 -8 -55 -32 l5 -20 -15 20 c-14 19 -16
19 -25 2 -6 -9 -14 -15 -20 -12 -5 4 -9 -3 -9 -13 0 -11 -7 -23 -16 -26 -9 -4
-13 -2 -8 5 4 7 1 10 -7 7 -8 -3 -14 -10 -14 -16 0 -6 -6 -17 -12 -23 -10 -10
-13 -9 -13 5 0 15 -3 16 -15 6 -11 -9 -18 -10 -28 -1 -8 6 -17 8 -20 4 -4 -3
-7 -106 -7 -227 0 -228 -8 -291 -38 -300 -27 -8 -254 -10 -279 -2 -12 4 -28
20 -35 37 -10 24 -28 35 -92 59 -105 40 -235 77 -320 90 -67 11 -113 27 -103
37 8 7 154 -16 235 -38 40 -11 115 -38 167 -60 52 -21 97 -39 100 -39 3 0 5
74 5 164 l0 164 -28 4 c-28 4 -44 -5 -55 -32 -3 -10 -6 -7 -6 7 -2 36 -31 39
-42 4 -3 -8 -20 -15 -39 -17 -27 -2 -30 -1 -15 6 18 8 18 9 2 9 -10 1 -28 -4
-39 -10 -16 -9 -19 -8 -12 3 6 10 3 9 -10 -2 -10 -8 -28 -15 -39 -17 -16 -2
-18 0 -9 6 11 6 10 9 -3 15 -29 11 -55 7 -49 -8 3 -8 0 -17 -7 -22 -9 -5 -10
-2 -6 9 3 8 0 21 -8 27 -10 9 -15 6 -21 -12 -4 -13 -7 -29 -5 -37 1 -7 -2 -10
-8 -6 -6 3 -11 12 -11 19 0 7 -7 13 -15 13 -8 0 -15 -3 -15 -7 0 -3 -7 -15
-16 -26 -8 -10 -13 -13 -9 -7 3 7 1 21 -5 30 -10 16 -11 16 -5 -2 3 -11 3 -16
-1 -12 -4 4 -13 -1 -21 -11 -14 -16 -14 -16 -9 1 3 9 1 17 -4 17 -6 0 -10 6
-10 13 0 7 -9 19 -20 27 -11 8 -20 18 -20 22 0 3 -5 19 -11 35 -7 18 -13 23
-18 15 -5 -8 -27 8 -69 49 -69 67 -142 105 -233 122 l-59 12 0 630 c1 675 0
663 51 691 37 21 223 19 260 -3z m-817 -469 c3 -9 6 -23 6 -32 0 -13 -5 -11
-20 8 -11 14 -20 28 -20 33 0 14 28 7 34 -9z m1153 -576 c-3 -7 -5 -2 -5 12 0
14 2 19 5 13 2 -7 2 -19 0 -25z m93 -98 c0 -5 -2 -10 -4 -10 -3 0 -8 5 -11 10
-3 6 -1 10 4 10 6 0 11 -4 11 -10z m1584 -125 c7 -34 -7 -15 -19 25 -5 16 -4
22 3 15 5 -5 12 -23 16 -40z m-2439 15 c3 -5 1 -10 -4 -10 -6 0 -11 5 -11 10
0 6 2 10 4 10 3 0 8 -4 11 -10z m95 -40 c0 -5 -5 -10 -11 -10 -5 0 -7 5 -4 10
3 6 8 10 11 10 2 0 4 -4 4 -10z m-553 -42 c-3 -7 -5 -2 -5 12 0 14 2 19 5 13
2 -7 2 -19 0 -25z m500 26 c-3 -3 -12 -4 -19 -1 -8 3 -5 6 6 6 11 1 17 -2 13
-5z m-567 -24 c-8 -5 -24 -9 -35 -9 -16 1 -16 2 5 9 35 11 48 11 30 0z m2888
-22 c7 -20 8 -36 2 -42 -9 -9 -30 31 -30 60 0 25 15 15 28 -18z m-3075 -23 c4
-8 2 -17 -3 -20 -6 -4 -10 3 -10 14 0 25 6 27 13 6z m-2783 -34 c0 -6 -8 -3
-18 7 -11 9 -17 20 -15 25 5 9 33 -18 33 -32z m749 30 c11 -7 9 -10 -8 -16
-13 -4 -25 -4 -28 -1 -4 3 2 6 13 7 15 1 13 3 -6 9 -21 7 -21 8 -5 9 11 0 26
-3 34 -8z m2066 -1 c3 -5 1 -10 -4 -10 -6 0 -11 5 -11 10 0 6 2 10 4 10 3 0 8
-4 11 -10z m-2000 -10 c-3 -5 -10 -10 -16 -10 -5 0 -9 5 -9 10 0 6 7 10 16 10
8 0 12 -4 9 -10z m580 -30 c-3 -5 -12 -10 -18 -10 -7 0 -6 4 3 10 19 12 23 12
15 0z m3065 -145 c0 -8 -4 -15 -10 -15 -5 0 -7 7 -4 15 4 8 8 15 10 15 2 0 4
-7 4 -15z m1730 -35 c0 -5 -5 -10 -11 -10 -5 0 -7 5 -4 10 3 6 8 10 11 10 2 0
4 -4 4 -10z m87 4 c-3 -3 -12 -4 -19 -1 -8 3 -5 6 6 6 11 1 17 -2 13 -5z m83
-4 c0 -5 -4 -10 -10 -10 -5 0 -10 5 -10 10 0 6 5 10 10 10 6 0 10 -4 10 -10z
m-7430 -10 c0 -5 -5 -10 -11 -10 -5 0 -7 5 -4 10 3 6 8 10 11 10 2 0 4 -4 4
-10z m7515 0 c3 -5 1 -10 -4 -10 -6 0 -11 5 -11 10 0 6 2 10 4 10 3 0 8 -4 11
-10z m-340 -10 c3 -5 -1 -10 -9 -10 -9 0 -16 5 -16 10 0 6 4 10 9 10 6 0 13
-4 16 -10z m-85 -20 c0 -5 -4 -10 -10 -10 -5 0 -10 5 -10 10 0 6 5 10 10 10 6
0 10 -4 10 -10z m510 -10 c0 -5 -4 -10 -10 -10 -5 0 -10 5 -10 10 0 6 5 10 10
10 6 0 10 -4 10 -10z m-595 -10 c3 -5 -1 -10 -10 -10 -9 0 -13 5 -10 10 3 6 8
10 10 10 2 0 7 -4 10 -10z m660 -40 c3 -5 2 -10 -4 -10 -5 0 -13 5 -16 10 -3
6 -2 10 4 10 5 0 13 -4 16 -10z m55 -70 c0 -5 -4 -10 -10 -10 -5 0 -10 5 -10
10 0 6 5 10 10 10 6 0 10 -4 10 -10z m-7755 -58 c-3 -3 -11 0 -18 7 -9 10 -8
11 6 5 10 -3 15 -9 12 -12z m7785 -22 c0 -5 -4 -10 -10 -10 -5 0 -10 5 -10 10
0 6 5 10 10 10 6 0 10 -4 10 -10z m-1220 -20 c0 -5 -4 -10 -10 -10 -5 0 -10 5
-10 10 0 6 5 10 10 10 6 0 10 -4 10 -10z m-73 -46 c-3 -3 -12 -4 -19 -1 -8 3
-5 6 6 6 11 1 17 -2 13 -5z m1293 -13 c0 -6 -4 -13 -10 -16 -5 -3 -10 1 -10 9
0 9 5 16 10 16 6 0 10 -4 10 -9z m-1370 -25 c0 -3 -4 -8 -10 -11 -5 -3 -10 -1
-10 4 0 6 5 11 10 11 6 0 10 -2 10 -4z m-6475 -16 c3 -5 1 -10 -4 -10 -6 0
-11 5 -11 10 0 6 2 10 4 10 3 0 8 -4 11 -10z m6585 -24 c0 -13 -56 -46 -79
-46 -20 0 -11 35 12 46 32 17 67 16 67 0z m-185 -6 c-3 -5 -11 -10 -16 -10 -6
0 -7 5 -4 10 3 6 11 10 16 10 6 0 7 -4 4 -10z m-153 -77 c-29 -36 -51 -68 -49
-69 1 -1 22 -5 47 -8 25 -2 46 -5 48 -5 2 -1 0 -5 -3 -11 -3 -5 -24 -10 -46
-10 -21 0 -39 -3 -39 -6 0 -4 19 -28 43 -53 94 -104 107 -120 96 -127 -6 -3
-37 20 -68 52 -32 33 -67 67 -78 77 -21 18 -21 18 -19 -39 1 -38 -3 -59 -12
-61 -7 -3 -10 1 -7 9 3 7 -1 32 -8 55 l-13 43 -18 -35 c-32 -60 -57 -40 -26
21 27 51 26 54 -15 54 -24 0 -35 5 -35 15 0 11 11 15 38 15 l37 0 -58 53 c-51
46 -71 77 -49 77 4 0 30 -19 57 -41 l50 -42 3 42 c3 43 24 53 30 15 10 -67 8
-67 72 -2 33 34 63 59 66 55 4 -4 -16 -37 -44 -74z m1553 -9 c-53 -142 -169
-329 -278 -452 -122 -138 -351 -345 -477 -433 -55 -38 -33 -17 131 121 218
185 364 341 471 503 60 92 125 220 148 292 16 50 23 62 27 49 2 -6 -8 -42 -22
-80z m-3505 62 c0 -3 -4 -8 -10 -11 -5 -3 -10 -1 -10 4 0 6 5 11 10 11 6 0 10
-2 10 -4z m-1525 -36 c3 -5 1 -10 -4 -10 -6 0 -11 5 -11 10 0 6 2 10 4 10 3 0
8 -4 11 -10z m1450 0 c3 -5 -1 -10 -10 -10 -9 0 -13 5 -10 10 3 6 8 10 10 10
2 0 7 -4 10 -10z m2205 -3 c0 -14 -20 -37 -32 -37 -10 0 -11 34 -1 43 11 12
33 8 33 -6z m-2280 -41 c0 -3 -4 -8 -10 -11 -5 -3 -10 -1 -10 4 0 6 5 11 10
11 6 0 10 -2 10 -4z m-1550 -20 c0 -3 -4 -8 -10 -11 -5 -3 -10 -1 -10 4 0 6 5
11 10 11 6 0 10 -2 10 -4z m1475 -26 c-3 -5 -10 -10 -16 -10 -5 0 -9 5 -9 10
0 6 7 10 16 10 8 0 12 -4 9 -10z m-1412 -51 c4 -16 3 -18 -9 -8 -16 13 -19 29
-5 29 5 0 11 -9 14 -21z m1337 11 c0 -5 -5 -10 -11 -10 -5 0 -7 5 -4 10 3 6 8
10 11 10 2 0 4 -4 4 -10z m6430 -190 l0 -170 -25 0 -25 0 0 170 0 170 25 0 25
0 0 -170z m-8400 140 c0 -5 -4 -10 -10 -10 -5 0 -10 5 -10 10 0 6 5 10 10 10
6 0 10 -4 10 -10z m1900 0 c0 -5 -5 -10 -11 -10 -5 0 -7 5 -4 10 3 6 8 10 11
10 2 0 4 -4 4 -10z m4215 -61 c16 -8 42 -31 59 -52 25 -31 30 -47 30 -90 0
-68 -29 -116 -89 -148 -44 -23 -45 -25 -45 -72 0 -47 -1 -48 -27 -45 -26 3
-28 7 -31 51 -3 43 -6 48 -36 61 -37 15 -83 67 -92 102 -4 14 -4 45 -2 69 13
111 131 174 233 124z m735 -96 c0 -96 2 -109 22 -130 27 -29 80 -31 108 -3 18
18 20 33 20 130 l0 110 30 0 30 0 1 -87 c2 -115 0 -133 -18 -166 -43 -85 -182
-88 -233 -5 -17 28 -20 50 -20 146 l0 112 30 0 30 0 0 -107z m880 -48 l0 -155
-30 0 -30 0 0 155 0 155 30 0 30 0 0 -155z m-5970 95 c0 -5 -5 -10 -11 -10 -5
0 -7 5 -4 10 3 6 8 10 11 10 2 0 4 -4 4 -10z m-60 -54 c0 -3 -4 -8 -10 -11 -5
-3 -10 -1 -10 4 0 6 5 11 10 11 6 0 10 -2 10 -4z m-586 -47 c14 -17 26 -34 26
-38 0 -5 -20 -56 -44 -114 -64 -151 -199 -504 -250 -654 -24 -71 -60 -171 -79
-223 -19 -52 -37 -112 -41 -134 l-7 -38 45 6 c101 16 272 100 352 176 63 60
102 80 154 80 33 0 48 -6 71 -29 65 -66 17 -137 -146 -215 -47 -23 -74 -42
-78 -55 -3 -14 0 -21 8 -21 52 0 328 128 446 206 64 42 68 47 100 127 104 262
287 617 318 617 24 0 68 -35 76 -60 4 -11 -3 -34 -18 -57 -62 -100 -218 -417
-241 -491 l-8 -23 34 21 c70 42 143 15 174 -65 40 -107 -33 -290 -133 -332
-66 -27 -104 -15 -141 45 l-20 34 -42 -76 c-46 -84 -64 -93 -105 -51 -31 30
-31 53 -1 143 14 40 23 72 21 72 -2 0 -43 -25 -90 -56 -199 -130 -370 -189
-430 -150 -34 22 -65 74 -65 109 l0 27 -48 -24 c-68 -34 -165 -66 -203 -66
-45 0 -106 63 -115 118 -4 23 -8 42 -10 42 -2 0 -34 -20 -71 -44 -165 -105
-319 -176 -385 -176 -98 0 -152 88 -117 189 6 18 10 34 7 36 -2 2 -60 -21
-128 -51 -220 -97 -248 -106 -317 -102 -52 3 -68 9 -93 33 -103 99 -31 309
117 340 67 14 158 -52 139 -100 -5 -13 -12 -15 -34 -9 -44 12 -72 7 -99 -17
-30 -28 -62 -94 -63 -128 0 -22 2 -23 46 -16 52 7 234 66 374 120 52 20 109
41 125 47 17 6 41 21 55 33 82 74 181 73 219 -2 6 -12 11 -29 11 -37 0 -31
-70 -92 -158 -139 -81 -43 -112 -70 -97 -85 10 -11 144 39 262 97 164 81 231
125 240 159 21 86 226 642 325 884 53 130 63 148 83 148 14 0 34 -13 49 -31z
m526 -13 c0 -3 -4 -8 -10 -11 -5 -3 -10 -1 -10 4 0 6 5 11 10 11 6 0 10 -2 10
-4z m-60 -66 c0 -5 -5 -10 -11 -10 -5 0 -7 5 -4 10 3 6 8 10 11 10 2 0 4 -4 4
-10z m-60 -70 c0 -5 -5 -10 -11 -10 -5 0 -7 5 -4 10 3 6 8 10 11 10 2 0 4 -4
4 -10z m6890 -55 c0 -33 -30 -49 -58 -29 -12 8 -22 21 -22 29 0 8 10 21 22 29
28 20 58 4 58 -29z m-6940 -9 c0 -3 -4 -8 -10 -11 -5 -3 -10 -1 -10 4 0 6 5
11 10 11 6 0 10 -2 10 -4z m3310 -66 c-33 -28 -416 -304 -505 -363 -36 -25
-40 -31 -40 -70 -1 -52 -36 -109 -63 -100 -29 10 -62 46 -62 67 0 12 7 34 15
50 19 37 19 39 -6 26 -11 -7 -23 -10 -25 -7 -6 6 231 181 289 212 63 35 60 25
-5 -16 -29 -18 -91 -62 -137 -97 l-83 -65 28 -12 c16 -7 34 -9 39 -5 6 4 78
54 160 112 154 107 255 179 358 255 68 49 88 57 37 13z m-3360 -4 c0 -3 -4 -8
-10 -11 -5 -3 -10 -1 -10 4 0 6 5 11 10 11 6 0 10 -2 10 -4z m-50 -76 c0 -5
-5 -10 -11 -10 -5 0 -7 5 -4 10 3 6 8 10 11 10 2 0 4 -4 4 -10z m3160 -28 c0
-4 -14 -16 -31 -26 -23 -14 -30 -15 -27 -5 3 8 15 20 29 26 29 15 29 15 29 5z
m-4252 -67 c3 -25 2 -27 -12 -16 -19 16 -22 55 -3 49 6 -3 14 -17 15 -33z
m1052 31 c0 -3 -4 -8 -10 -11 -5 -3 -10 -1 -10 4 0 6 5 11 10 11 6 0 10 -2 10
-4z m-40 -80 c0 -3 -4 -8 -10 -11 -5 -3 -10 -1 -10 4 0 6 5 11 10 11 6 0 10
-2 10 -4z m-40 -80 c0 -3 -4 -8 -10 -11 -5 -3 -10 -1 -10 4 0 6 5 11 10 11 6
0 10 -2 10 -4z m3580 -50 c0 -3 -4 -8 -10 -11 -5 -3 -10 -1 -10 4 0 6 5 11 10
11 6 0 10 -2 10 -4z m-70 -56 c0 -5 -5 -10 -11 -10 -5 0 -7 5 -4 10 3 6 8 10
11 10 2 0 4 -4 4 -10z m-4870 -33 c0 -18 -2 -19 -10 -7 -13 20 -13 43 0 35 6
-3 10 -16 10 -28z m4803 -37 c-3 -11 -7 -20 -9 -20 -2 0 -4 9 -4 20 0 11 4 20
9 20 5 0 7 -9 4 -20z m-115 -91 l-58 -50 21 -29 c19 -25 21 -38 17 -122 -5
-115 -38 -197 -103 -257 -79 -73 -164 -61 -213 30 -40 75 -14 164 81 266 53
57 135 117 163 118 12 1 46 22 75 48 30 26 58 47 64 47 5 0 -16 -23 -47 -51z
m-3632 9 c-4 -13 -14 -60 -22 -105 -9 -46 -20 -83 -25 -83 -10 0 -12 53 -3 63
3 3 7 27 8 54 3 47 22 93 40 93 4 0 5 -10 2 -22z m214 12 c0 -5 -4 -10 -10
-10 -5 0 -10 5 -10 10 0 6 5 10 10 10 6 0 10 -4 10 -10z m3844 -61 c14 -17 26
-37 26 -44 0 -27 -120 -253 -174 -327 -61 -83 -96 -105 -139 -89 -78 30 -93
175 -36 349 23 70 39 78 83 37 31 -29 32 -43 5 -141 -11 -41 -19 -78 -16 -80
8 -9 93 133 138 230 49 109 68 119 113 65z m-890 -40 c47 -37 49 -51 17 -126
-18 -42 -27 -78 -24 -94 4 -20 0 -27 -15 -31 -11 -3 -31 -30 -48 -64 -129
-266 -357 -590 -446 -633 -58 -28 -74 -27 -109 8 -27 28 -29 34 -29 108 1 126
42 225 159 380 113 149 212 235 320 279 53 22 55 25 85 96 47 111 47 111 90
77z m-1904 -18 l29 -29 47 24 c75 38 136 27 183 -32 41 -52 17 -91 -37 -59
-27 16 -30 16 -63 0 -56 -29 -192 -173 -233 -247 -21 -38 -44 -68 -53 -68 -25
0 -52 20 -66 48 -13 25 -9 40 56 210 77 201 83 207 137 153z m561 9 c20 -6 44
-19 54 -30 12 -13 31 -20 57 -20 28 0 46 -7 63 -25 30 -29 31 -54 5 -130 -11
-32 -20 -69 -20 -82 0 -21 4 -23 23 -18 78 24 192 89 313 181 39 30 76 54 84
54 18 0 50 -30 50 -46 0 -14 -117 -119 -207 -185 -89 -66 -178 -109 -226 -109
-86 0 -154 79 -144 167 l5 44 -37 -28 c-20 -15 -58 -46 -86 -69 -57 -48 -150
-108 -181 -118 -16 -5 -31 1 -54 20 -29 25 -32 32 -27 70 12 107 126 276 212
315 46 21 66 23 116 9z m2550 -10 c21 -12 49 -60 49 -84 0 -32 -72 -95 -159
-140 -81 -42 -111 -69 -96 -85 9 -8 126 34 233 84 133 63 253 136 265 163 14
30 57 29 87 -2 22 -25 23 -45 5 -89 -5 -11 30 6 93 47 135 89 203 120 247 112
59 -11 95 -79 76 -143 -5 -18 -7 -33 -5 -33 3 0 22 9 44 20 22 11 52 20 68 20
47 0 95 -39 112 -91 11 -32 20 -44 30 -41 39 12 235 115 295 155 55 37 72 44
87 36 26 -14 33 -36 17 -56 -24 -28 -217 -168 -294 -213 -88 -49 -138 -59
-184 -35 -36 18 -66 75 -56 106 4 10 3 19 -1 19 -4 0 -45 -27 -91 -61 -93 -68
-122 -73 -156 -27 l-21 28 21 94 20 95 -46 -26 c-85 -49 -205 -137 -272 -200
-36 -35 -74 -63 -83 -63 -10 0 -31 14 -48 30 -32 32 -31 28 -11 132 5 27 4 27
-88 -29 -197 -119 -325 -163 -391 -132 -36 16 -68 70 -68 115 0 84 103 239
190 284 39 21 101 26 131 10z m-4405 -907 c28 5 29 4 8 -28 -9 -14 -14 -34
-11 -45 3 -12 1 -17 -5 -14 -5 3 -16 -2 -24 -12 -14 -17 -15 -15 -10 24 6 40
5 42 -19 42 -15 0 -24 4 -20 10 3 6 15 10 26 10 14 0 19 7 20 28 2 25 2 25 6
3 4 -18 10 -22 29 -18z m-2508 -29 l-4 -29 -12 28 c-13 31 -7 56 10 39 5 -5 8
-22 6 -38z m2402 -48 c0 -2 -8 -10 -17 -17 -16 -13 -17 -12 -4 4 13 16 21 21
21 13z m-81 -73 c-92 -81 -239 -221 -352 -337 -210 -214 -278 -367 -232 -522
15 -51 75 -124 102 -124 8 0 27 -9 42 -21 41 -30 156 -41 310 -28 163 13 247
33 536 129 131 44 240 78 242 76 5 -5 -19 -14 -267 -98 -314 -106 -414 -127
-627 -130 -162 -2 -275 45 -330 139 -26 44 -28 56 -28 148 0 92 3 105 33 170
44 93 87 147 228 291 122 125 375 356 382 349 2 -2 -16 -21 -39 -42z m1021 17
c0 -5 -4 -10 -10 -10 -5 0 -10 5 -10 10 0 6 5 10 10 10 6 0 10 -4 10 -10z
m3045 -72 c-25 -79 -133 -292 -194 -383 -128 -192 -304 -379 -481 -512 -100
-76 -304 -199 -345 -209 -55 -14 -19 17 91 77 380 209 698 558 884 972 55 122
75 147 45 55z m-3115 28 c0 -3 -4 -8 -10 -11 -5 -3 -10 -1 -10 4 0 6 5 11 10
11 6 0 10 -2 10 -4z m-300 -26 c0 -5 -5 -10 -11 -10 -5 0 -7 5 -4 10 3 6 8 10
11 10 2 0 4 -4 4 -10z m-545 -10 c3 -5 1 -10 -4 -10 -6 0 -11 5 -11 10 0 6 2
10 4 10 3 0 8 -4 11 -10z m1204 5 c-9 -8 -182 -110 -264 -155 -213 -117 -513
-269 -670 -340 -27 -12 -97 -44 -155 -70 -112 -51 -201 -80 -244 -80 -45 0
-28 17 19 18 71 3 231 72 645 279 257 128 438 223 580 305 77 44 101 56 89 43z
m231 -19 c0 -7 -172 -107 -176 -103 -3 3 165 107 174 107 1 0 2 -2 2 -4z
m1740 -6 c0 -5 -4 -10 -10 -10 -5 0 -10 5 -10 10 0 6 5 10 10 10 6 0 10 -4 10
-10z m-3220 -15 c0 -8 -7 -15 -15 -15 -26 0 -18 20 13 29 1 1 2 -6 2 -14z
m3157 9 c-3 -3 -12 -4 -19 -1 -8 3 -5 6 6 6 11 1 17 -2 13 -5z m-2861 -89 c17
-51 58 -133 96 -193 21 -34 19 -54 -4 -31 -53 54 -128 219 -128 281 0 31 14 9
36 -57z m444 55 c0 -5 -5 -10 -11 -10 -5 0 -7 5 -4 10 3 6 8 10 11 10 2 0 4
-4 4 -10z m910 -20 c-30 -16 -59 -29 -65 -29 -5 0 15 13 45 29 30 16 60 29 65
29 6 0 -15 -13 -45 -29z m1425 20 c3 -5 -1 -10 -10 -10 -9 0 -13 5 -10 10 3 6
8 10 10 10 2 0 7 -4 10 -10z m-2525 -4 c0 -3 -4 -8 -10 -11 -5 -3 -10 -1 -10
4 0 6 5 11 10 11 6 0 10 -2 10 -4z m750 -11 c0 -2 -10 -9 -22 -15 -22 -11 -22
-10 -4 4 21 17 26 19 26 11z m-1360 -30 c0 -8 -7 -15 -15 -15 -16 0 -20 12 -8
23 11 12 23 8 23 -8z m3060 5 c0 -5 -4 -10 -10 -10 -5 0 -10 5 -10 10 0 6 5
10 10 10 6 0 10 -4 10 -10z m-5263 -22 c-3 -8 -6 -5 -6 6 -1 11 2 17 5 13 3
-3 4 -12 1 -19z m2933 18 c0 -3 -4 -8 -10 -11 -5 -3 -10 -1 -10 4 0 6 5 11 10
11 6 0 10 -2 10 -4z m565 -12 c-26 -20 -55 -36 -55 -30 0 5 63 46 70 46 3 -1
-4 -8 -15 -16z m1985 6 c0 -5 -5 -10 -11 -10 -5 0 -7 5 -4 10 3 6 8 10 11 10
2 0 4 -4 4 -10z m-1661 -14 c-10 -9 -129 -66 -129 -61 0 6 111 64 124 65 5 0
7 -2 5 -4z m-959 -30 c0 -3 -4 -8 -10 -11 -5 -3 -10 -1 -10 4 0 6 5 11 10 11
6 0 10 -2 10 -4z m1120 -20 c-19 -17 -402 -231 -590 -329 -176 -91 -398 -192
-407 -184 -3 4 5 11 18 16 105 40 455 216 662 333 38 21 71 38 74 38 3 0 17 9
31 19 27 19 213 120 222 121 2 0 -2 -6 -10 -14z m-1862 -8 c-3 -7 -12 -14 -21
-16 -12 -2 -15 1 -11 12 7 19 38 22 32 4z m3892 2 c0 -5 -5 -10 -11 -10 -5 0
-7 5 -4 10 3 6 8 10 11 10 2 0 4 -4 4 -10z m-900 -4 c0 -3 -4 -8 -10 -11 -5
-3 -10 -1 -10 4 0 6 5 11 10 11 6 0 10 -2 10 -4z m340 0 c0 -3 -4 -8 -10 -11
-5 -3 -10 -1 -10 4 0 6 5 11 10 11 6 0 10 -2 10 -4z m-1815 -35 c-6 -4 -64
-36 -130 -71 -66 -34 -148 -78 -182 -97 -35 -19 -63 -32 -63 -30 0 7 103 64
255 144 121 63 137 70 120 54z m1402 -17 c-3 -3 -12 -4 -19 -1 -8 3 -5 6 6 6
11 1 17 -2 13 -5z m363 -24 c0 -5 -5 -10 -11 -10 -5 0 -7 5 -4 10 3 6 8 10 11
10 2 0 4 -4 4 -10z m570 6 c0 -3 -4 -8 -10 -11 -5 -3 -10 -1 -10 4 0 6 5 11
10 11 6 0 10 -2 10 -4z m-3950 -34 c0 -27 -24 -55 -43 -51 -16 4 -15 7 3 37
22 35 40 42 40 14z m3330 -36 c0 -3 -4 -8 -10 -11 -5 -3 -10 -1 -10 4 0 6 5
11 10 11 6 0 10 -2 10 -4z m570 0 c0 -3 -4 -8 -10 -11 -5 -3 -10 -1 -10 4 0 6
5 11 10 11 6 0 10 -2 10 -4z m-3979 -105 c-12 -22 -21 -55 -21 -73 0 -25 -3
-29 -10 -18 -5 8 -7 24 -4 35 10 38 48 117 52 107 2 -6 -6 -29 -17 -51z m3349
39 c0 -5 -5 -10 -11 -10 -5 0 -7 5 -4 10 3 6 8 10 11 10 2 0 4 -4 4 -10z m570
-10 c0 -5 -4 -10 -10 -10 -5 0 -10 5 -10 10 0 6 5 10 10 10 6 0 10 -4 10 -10z
m-2630 -34 c0 -7 -163 -96 -167 -92 -3 2 33 25 79 50 87 48 88 48 88 42z
m2000 -16 c0 -5 -5 -10 -11 -10 -5 0 -7 5 -4 10 3 6 8 10 11 10 2 0 4 -4 4
-10z m570 -10 c0 -5 -5 -10 -11 -10 -5 0 -7 5 -4 10 3 6 8 10 11 10 2 0 4 -4
4 -10z m-630 -54 c0 -3 -4 -8 -10 -11 -5 -3 -10 -1 -10 4 0 6 5 11 10 11 6 0
10 -2 10 -4z m570 -6 c0 -5 -5 -10 -11 -10 -5 0 -7 5 -4 10 3 6 8 10 11 10 2
0 4 -4 4 -10z m-3820 -53 c0 -22 45 -58 91 -72 37 -12 40 -14 16 -14 -36 -1
-80 22 -106 55 -23 29 -27 44 -11 44 6 0 10 -6 10 -13z m3190 -7 c0 -5 -5 -10
-11 -10 -5 0 -7 5 -4 10 3 6 8 10 11 10 2 0 4 -4 4 -10z m570 6 c0 -3 -4 -8
-10 -11 -5 -3 -10 -1 -10 4 0 6 5 11 10 11 6 0 10 -2 10 -4z m-1120 -30 c0 -3
-4 -8 -10 -11 -5 -3 -10 -1 -10 4 0 6 5 11 10 11 6 0 10 -2 10 -4z m975 -76
c3 -5 -1 -10 -10 -10 -9 0 -13 5 -10 10 3 6 8 10 10 10 2 0 7 -4 10 -10z m-75
-44 c0 -3 -4 -8 -10 -11 -5 -3 -10 -1 -10 4 0 6 5 11 10 11 6 0 10 -2 10 -4z
m-2570 -26 c-8 -5 -19 -10 -25 -10 -5 0 -3 5 5 10 8 5 20 10 25 10 6 0 3 -5
-5 -10z m2495 -20 c-3 -5 -10 -10 -16 -10 -5 0 -9 5 -9 10 0 6 7 10 16 10 8 0
12 -4 9 -10z m-85 -30 c0 -5 -5 -10 -11 -10 -5 0 -7 5 -4 10 3 6 8 10 11 10 2
0 4 -4 4 -10z m-80 -30 c0 -5 -5 -10 -11 -10 -5 0 -7 5 -4 10 3 6 8 10 11 10
2 0 4 -4 4 -10z m-1753 -214 c196 -98 410 -166 616 -196 81 -12 108 -23 93
-37 -16 -16 -294 44 -441 97 -138 48 -168 61 -250 102 -91 46 -292 177 -321
209 -10 12 29 -11 88 -50 59 -39 155 -96 215 -125z m1431 -168 c-3 -7 -25 -17
-51 -24 -76 -19 -296 -49 -304 -40 -13 13 18 24 86 31 36 4 104 15 151 25 104
22 123 23 118 8z m97 -1249 c426 -84 774 -312 923 -606 63 -123 84 -325 49
-459 -106 -393 -532 -689 -1104 -764 -104 -14 -152 -9 -179 21 -18 20 -19 49
-22 593 l-2 573 167 7 c211 9 237 14 241 46 5 50 0 51 -203 41 -104 -6 -192
-8 -197 -5 -4 3 -8 121 -8 262 0 277 2 291 54 313 29 12 159 2 281 -22z
m-3226 -93 c-2 -2 -60 -5 -129 -8 -69 -2 -109 -1 -90 2 36 8 226 13 219 6z
m129 -26 c197 -55 385 -196 488 -367 43 -72 91 -187 98 -238 5 -30 2 -25 -12
20 -89 299 -330 525 -627 588 -38 9 -59 16 -45 16 14 1 58 -8 98 -19z m-432
-6 c-26 -9 -50 -13 -53 -10 -6 6 54 24 82 24 11 1 -2 -6 -29 -14z m-135 -49
c-189 -89 -340 -247 -418 -440 -18 -44 -33 -73 -33 -65 0 30 68 170 113 233
74 103 191 206 296 260 51 26 98 47 104 47 7 -1 -21 -16 -62 -35z m259 -5 c0
-13 -7 -20 -20 -20 -13 0 -20 7 -20 20 0 13 7 20 20 20 13 0 20 -7 20 -20z
m5725 -55 c-19 -36 -39 -49 -28 -17 11 29 35 63 41 57 4 -3 -2 -21 -13 -40z
m-5631 8 c9 -22 -10 -41 -25 -26 -13 13 -5 43 10 43 5 0 12 -8 15 -17z m53 5
c4 -7 8 -35 8 -61 0 -42 -2 -47 -20 -45 -17 3 -20 12 -23 61 -2 45 0 57 12 57
8 0 18 -6 23 -12z m5424 -3 c40 -21 28 -36 -17 -20 -47 16 -83 8 -96 -21 -15
-31 2 -51 56 -64 70 -18 86 -30 86 -65 0 -39 -25 -64 -72 -71 -37 -7 -108 18
-108 37 0 7 6 8 18 3 32 -14 112 -17 128 -3 28 23 13 53 -36 67 -80 23 -95 34
-98 74 -6 65 69 99 139 63z m249 -40 l0 -54 28 16 c38 22 77 11 97 -27 28 -54
12 -111 -38 -131 -25 -11 -34 -10 -58 4 -25 14 -29 14 -29 2 0 -8 -4 -15 -10
-15 -6 0 -10 50 -10 130 0 80 4 130 10 130 6 0 10 -25 10 -55z m480 -75 c0
-80 -4 -130 -10 -130 -5 0 -10 6 -10 14 0 12 -5 12 -31 -1 -28 -14 -34 -14
-64 0 -37 18 -51 56 -40 107 12 53 58 70 118 45 15 -6 17 -1 17 44 0 28 5 51
10 51 6 0 10 -50 10 -130z m-6290 96 c0 -13 3 -37 6 -53 5 -25 2 -31 -14 -35
-23 -6 -32 14 -32 75 0 30 4 37 20 37 14 0 20 -7 20 -24z m2457 -8 c-3 -8 -6
-5 -6 6 -1 11 2 17 5 13 3 -3 4 -12 1 -19z m-44 -3 c-3 -9 -8 -14 -10 -11 -3
3 -2 9 2 15 9 16 15 13 8 -4z m78 -12 c-12 -20 -14 -14 -5 12 4 9 9 14 11 11
3 -2 0 -13 -6 -23z m-2147 2 c13 -14 13 -19 -9 -52 -14 -20 -25 -39 -25 -43 0
-5 -9 -6 -21 -3 -21 6 -21 9 9 75 19 42 24 44 46 23z m-470 -28 c28 -36 34
-67 14 -66 -14 0 -78 75 -78 90 0 22 41 6 64 -24z m211 -7 c0 -31 -3 -34 -29
-24 -19 7 -21 40 -3 47 25 11 32 6 32 -23z m316 4 c11 -13 9 -23 -10 -60 -25
-46 -28 -49 -49 -36 -10 7 -7 20 10 60 25 57 29 60 49 36z m2177 -9 c-3 -3 -9
2 -12 12 -6 14 -5 15 5 6 7 -7 10 -15 7 -18z m3154 -2 c14 -13 18 -31 18 -90
0 -42 -4 -73 -10 -73 -5 0 -10 7 -10 15 0 12 -5 11 -29 -3 -37 -21 -77 -5 -87
34 -9 35 16 54 67 54 44 0 54 11 39 41 -10 18 -17 20 -56 14 -47 -7 -58 0 -21
15 35 14 69 11 89 -7z m353 3 c13 -10 20 -30 23 -74 4 -63 -10 -114 -23 -80
-6 16 -9 16 -31 1 -20 -13 -29 -13 -53 -3 -35 14 -44 41 -24 69 11 16 25 21
59 21 36 0 44 3 44 19 0 30 -24 43 -64 35 -23 -4 -36 -2 -36 4 0 22 78 28 105
8z m370 -11 c61 -60 3 -170 -79 -149 -88 22 -68 174 24 174 19 0 40 -9 55 -25z
m-6669 -24 c14 -22 23 -45 19 -50 -13 -21 -34 -10 -56 29 -13 22 -27 40 -31
40 -5 0 -6 5 -3 10 14 22 46 9 71 -29z m674 14 c10 -13 9 -23 -5 -56 -21 -46
-27 -51 -49 -43 -13 5 -12 12 9 54 13 26 21 50 18 54 -4 3 -2 6 4 6 6 0 16 -7
23 -15z m1876 -10 c-1 -8 -5 -17 -8 -21 -5 -4 -4 16 1 34 3 9 9 -1 7 -13z
m-2629 -12 c3 -10 15 -31 26 -47 16 -23 17 -30 6 -37 -22 -13 -25 -12 -53 31
-29 44 -32 56 -13 63 22 9 27 7 34 -10z m2830 -45 c-3 -8 -6 -5 -6 6 -1 11 2
17 5 13 3 -3 4 -12 1 -19z m-63 4 c3 -5 -1 -9 -9 -9 -8 0 -12 4 -9 9 3 4 7 8
9 8 2 0 6 -4 9 -8z m-1952 -35 c-18 -18 -32 -41 -32 -51 0 -15 -3 -16 -15 -6
-36 30 -3 90 49 90 l30 0 -32 -33z m-878 14 c3 -5 -1 -14 -9 -21 -12 -10 -18
-10 -30 0 -8 7 -15 16 -15 21 0 12 47 12 54 0z m932 -47 c-6 -24 -9 -26 -22
-12 -13 13 -14 19 -3 36 8 13 17 18 23 12 4 -4 5 -21 2 -36z m1880 34 c4 -7 3
-8 -4 -4 -7 4 -12 2 -12 -5 0 -7 -3 -10 -6 -6 -6 5 3 27 11 27 2 0 7 -5 11
-12z m114 6 c0 -8 -19 -13 -24 -6 -3 5 1 9 9 9 8 0 15 -2 15 -3z m-93 -26 c-3
-8 -6 -5 -6 6 -1 11 2 17 5 13 3 -3 4 -12 1 -19z m-2875 -18 c15 -16 35 -30
44 -30 14 0 14 -3 4 -15 -28 -34 -90 -2 -90 46 0 36 6 36 42 -1z m553 -29 c20
-5 1 -8 -55 -8 -125 -1 -237 -41 -300 -108 l-23 -25 31 0 c17 0 50 -7 72 -16
32 -13 43 -14 55 -4 8 7 22 10 30 6 19 -7 20 -45 0 -52 -19 -8 -19 -30 -1 -37
9 -4 17 2 21 15 6 16 13 19 38 14 36 -7 47 -20 47 -57 0 -18 -6 -28 -20 -32
-11 -3 -28 -19 -37 -36 -10 -17 -37 -40 -60 -51 -50 -23 -52 -34 -17 -66 18
-17 32 -22 49 -18 26 7 103 -24 124 -49 9 -11 29 -17 58 -17 l44 0 -7 45 c-6
43 -5 45 18 45 14 0 37 -13 53 -30 37 -39 70 -41 61 -4 -21 80 -20 84 8 84 20
0 34 -12 62 -54 20 -30 44 -57 53 -59 9 -2 -4 -4 -29 -4 -25 0 -37 2 -27 5 23
5 22 12 -13 60 -26 37 -60 56 -60 35 0 -26 23 -84 36 -91 11 -6 4 -9 -23 -10
-32 -1 -45 4 -68 28 -49 51 -78 37 -55 -26 8 -19 8 -30 0 -38 -27 -27 -10 -36
66 -36 l76 0 -6 -25 c-3 -14 -9 -36 -12 -50 -11 -46 28 -30 64 25 32 49 33 50
85 50 63 0 80 10 75 41 -2 20 -10 25 -48 29 -33 4 -40 7 -27 13 17 6 19 17 15
95 -6 116 -33 185 -105 262 -59 65 -99 93 -171 121 -26 10 -40 18 -32 18 26 1
122 -49 168 -86 55 -45 117 -139 137 -207 9 -28 16 -86 16 -128 0 -75 1 -77
26 -80 36 -4 49 -42 23 -68 -11 -11 -32 -20 -47 -20 -23 0 -33 -9 -55 -48 -30
-53 -105 -131 -156 -162 -62 -38 -148 -60 -229 -59 -43 0 -86 3 -95 7 -10 4
33 7 95 7 107 0 115 2 182 34 78 38 161 115 194 179 20 39 20 42 4 41 -10 0
-32 -21 -49 -47 -24 -37 -37 -48 -62 -50 -30 -3 -31 -2 -23 20 4 13 11 35 15
50 l6 27 -72 3 c-67 3 -73 5 -76 26 -3 17 -10 22 -33 22 -19 0 -29 -5 -29 -14
0 -8 -8 -21 -18 -28 -11 -7 -25 -24 -32 -38 -7 -14 -26 -40 -42 -58 -16 -19
-31 -47 -35 -63 -7 -36 -30 -38 -44 -2 -7 19 -6 38 6 71 13 39 13 48 1 61 -8
9 -19 28 -24 42 -10 25 -14 26 -114 33 -56 4 -118 9 -136 13 -32 5 -33 5 -26
-23 22 -96 120 -211 223 -262 35 -18 59 -32 52 -32 -27 0 -118 55 -168 103
-51 48 -123 168 -123 206 0 10 -18 25 -42 36 -59 27 -63 57 -11 84 34 17 40
25 50 74 35 167 158 296 323 339 68 18 125 20 175 9z m2365 -25 c0 -11 -19
-15 -25 -6 -3 5 1 10 9 10 9 0 16 -2 16 -4z m-117 -21 c-3 -9 -8 -14 -10 -11
-3 3 -2 9 2 15 9 16 15 13 8 -4z m133 -5 c0 -12 -4 -16 -9 -11 -5 5 -6 14 -3
20 10 15 12 14 12 -9z m-95 -27 c13 -16 12 -17 -3 -4 -10 7 -18 15 -18 17 0 8
8 3 21 -13z m-1831 -29 c0 -14 -21 -19 -33 -7 -9 9 13 34 24 27 5 -3 9 -12 9
-20z m4734 5 c43 -34 36 -76 -25 -143 l-51 -56 56 0 c43 0 56 -3 56 -15 0 -15
-8 -17 -75 -17 -79 0 -95 2 -95 13 0 6 24 36 54 67 95 100 81 153 -33 121 -29
-8 -23 29 6 39 44 16 78 14 107 -9z m486 -108 c0 -119 -4 -139 -25 -121 -7 6
-22 5 -43 -2 -28 -11 -35 -10 -59 8 -23 17 -29 30 -31 71 -3 45 0 53 24 72 32
25 52 26 82 5 22 -15 22 -15 22 34 0 27 3 52 6 55 18 17 24 -14 24 -122z m470
72 c0 -39 2 -44 18 -38 39 17 59 16 85 -5 25 -20 28 -28 25 -73 -2 -41 -8 -54
-31 -71 -24 -18 -31 -19 -59 -8 -21 7 -36 8 -43 2 -7 -5 -15 -7 -18 -3 -9 8
-9 238 -1 246 14 14 24 -6 24 -50z m350 -47 c0 -82 3 -108 16 -120 8 -9 21
-16 27 -16 8 0 8 -3 -1 -12 -9 -9 -18 -9 -37 0 -25 11 -25 13 -25 132 0 73 4
120 10 120 6 0 10 -41 10 -104z m-1080 78 c0 -21 -97 -209 -116 -225 -10 -9
-18 -9 -26 -1 -7 7 4 38 41 105 28 52 51 97 51 101 0 3 -27 6 -60 6 -47 0 -60
3 -60 15 0 12 16 15 85 15 70 0 85 -3 85 -16z m1020 1 c0 -8 -7 -15 -15 -15
-8 0 -15 7 -15 15 0 8 7 15 15 15 8 0 15 -7 15 -15z m-7025 -16 c0 -7 -8 -15
-17 -17 -18 -3 -25 18 -11 32 10 10 28 1 28 -15z m6414 -56 c24 -20 34 -77 14
-79 -7 -1 -35 -2 -63 -3 -57 -1 -67 -20 -24 -47 20 -14 32 -15 60 -6 40 12 47
-3 8 -18 -42 -16 -64 -12 -95 19 -20 20 -29 39 -29 61 0 22 9 41 29 61 34 33
69 37 100 12z m234 5 c20 -15 33 -101 23 -143 -5 -21 -10 -24 -21 -15 -10 8
-18 8 -34 -2 -31 -19 -75 0 -79 35 -5 41 14 57 64 57 36 0 44 3 44 19 0 28
-25 44 -59 36 -36 -8 -41 -7 -42 3 -1 19 80 27 104 10z m267 -3 c0 -12 5 -11
29 3 16 9 33 14 36 10 11 -11 -4 -28 -24 -28 -24 0 -41 -41 -41 -100 0 -28 -4
-50 -10 -50 -6 0 -10 37 -10 90 0 53 4 90 10 90 6 0 10 -7 10 -15z m110 -75
c0 -43 -4 -82 -10 -85 -6 -4 -10 6 -11 22 -1 15 -2 51 -3 78 -2 57 2 77 15 69
5 -3 9 -41 9 -84z m-5852 57 c9 -10 1 -16 -34 -26 -24 -7 -49 -21 -54 -30 -8
-13 -9 -11 -10 11 0 15 7 34 16 42 19 19 67 21 82 3z m-1285 -27 c-4 -16 -11
-19 -27 -14 -27 8 -29 11 -21 23 3 6 17 11 30 11 18 0 22 -4 18 -20z m2547
-147 c0 -181 -5 -201 -53 -237 -24 -18 -43 -21 -125 -21 l-97 0 0 40 0 40 78
5 c54 3 81 10 87 20 5 8 10 84 10 168 l0 152 50 0 50 0 0 -167z m-2734 81 c-8
-38 -15 -59 -15 -47 -1 26 19 126 25 121 2 -2 -3 -35 -10 -74z m3078 54 c16
-25 156 -366 156 -379 0 -5 -24 -9 -54 -9 -51 0 -53 1 -62 33 -10 32 -10 32
-77 35 l-68 3 -14 -36 c-15 -33 -17 -35 -65 -35 -28 0 -50 4 -50 8 0 13 151
376 162 390 17 20 56 14 72 -10z m-1584 -12 c0 -18 -27 -39 -40 -31 -16 10
-12 33 8 38 29 8 32 7 32 -7z m-1273 -23 c22 4 23 3 10 -17 -27 -40 -107 -26
-107 19 0 11 8 11 36 3 21 -5 48 -8 61 -5z m1421 -158 c1 -49 -2 -108 -6 -129
-4 -22 -7 30 -7 119 0 88 3 146 6 129 4 -16 7 -69 7 -119z m-130 83 c-3 -20
-10 -23 -55 -26 -47 -3 -53 -1 -53 17 0 20 17 26 83 30 24 1 28 -2 25 -21z
m-1298 -18 c0 -17 -7 -20 -39 -20 -22 0 -46 -3 -55 -6 -11 -4 -16 0 -16 13 0
29 8 33 62 33 41 0 48 -3 48 -20z m-233 -102 c-2 -18 -4 -4 -4 32 0 36 2 50 4
33 2 -18 2 -48 0 -65z m1543 59 c0 -25 -24 -37 -72 -37 -41 0 -48 3 -48 19 0
16 8 21 48 24 26 2 53 4 60 5 6 1 12 -4 12 -11z m-1310 -27 c0 -17 -7 -20 -39
-20 -22 0 -46 -3 -55 -6 -11 -4 -16 0 -16 13 0 29 8 33 62 33 41 0 48 -3 48
-20z m0 -69 c0 -22 -17 -29 -72 -30 -34 0 -38 2 -38 24 0 24 3 25 55 25 48 0
55 -3 55 -19z m1300 -10 c0 -15 -12 -22 -50 -31 -81 -19 -100 15 -19 36 62 17
69 16 69 -5z m4425 -30 c29 -65 -4 -85 -44 -26 -25 38 -23 65 7 65 12 0 25
-14 37 -39z m-5929 -119 c-6 -5 -26 95 -25 121 0 12 7 -9 15 -47 7 -39 12 -72
10 -74z m6502 1 l3 -122 32 -3 c22 -2 33 -9 35 -22 6 -29 -16 -36 -109 -36
-65 0 -90 4 -99 15 -19 23 -5 43 32 47 l33 3 3 64 c4 85 0 94 -33 79 -22 -10
-28 -9 -36 3 -5 8 -9 20 -9 26 0 20 92 73 120 71 25 -3 25 -3 28 -125z m290
115 c20 -20 14 -39 -56 -168 -63 -117 -69 -125 -97 -125 -46 0 -42 27 19 135
l53 95 -46 3 c-76 4 -91 10 -91 36 0 14 6 27 13 29 26 11 193 7 205 -5z m90 0
c7 -7 12 -34 12 -61 0 -48 0 -48 22 -33 32 23 65 20 94 -9 23 -23 25 -31 22
-107 -3 -82 -3 -83 -30 -86 -33 -4 -46 17 -46 73 0 88 0 87 -29 83 -26 -3 -28
-6 -31 -58 -4 -89 -8 -100 -41 -100 -17 0 -31 6 -35 16 -3 9 -6 73 -6 143 0
129 6 151 40 151 9 0 21 -5 28 -12z m341 -3 c45 -23 56 -80 22 -114 -19 -19
-19 -20 5 -42 33 -31 31 -73 -5 -110 -25 -25 -37 -29 -85 -29 -89 0 -135 29
-100 64 11 12 21 13 40 6 41 -16 82 -12 93 8 16 31 -7 47 -76 51 -19 1 -16 48
3 55 9 3 27 6 40 6 19 0 24 5 24 24 0 31 -27 41 -74 27 -39 -10 -63 6 -52 34
13 34 114 47 165 20z m231 2 c37 -18 60 -72 60 -140 0 -105 -39 -157 -116
-157 -77 0 -114 54 -114 165 0 89 44 145 115 145 17 0 41 -6 55 -13z m-5860
-144 c-74 -229 -248 -419 -470 -514 -80 -34 -180 -59 -230 -58 -27 1 -23 3 20
10 333 52 603 292 681 604 7 27 14 44 17 37 2 -7 -6 -42 -18 -79z m-167 61
c44 -15 59 -35 38 -48 -5 -3 -31 1 -59 10 -40 13 -49 20 -45 35 6 23 8 23 66
3z m4580 -23 c15 -14 22 -37 25 -80 6 -83 -2 -111 -33 -111 -13 0 -27 5 -30
10 -4 7 -12 7 -25 0 -54 -29 -120 1 -120 55 0 41 15 51 88 61 55 7 64 17 33
33 -12 7 -31 7 -56 0 -44 -13 -67 0 -49 29 24 37 131 40 167 3z m191 19 c17
-6 26 -17 26 -31 0 -19 -4 -20 -49 -14 -33 4 -51 3 -56 -5 -10 -16 -3 -20 46
-31 54 -13 69 -25 69 -58 0 -49 -33 -71 -107 -71 -55 0 -90 19 -80 43 5 13 16
15 61 10 48 -5 56 -3 56 11 0 9 -6 16 -12 16 -7 0 -30 5 -51 11 -50 14 -67 47
-43 84 27 42 85 56 140 35z m-5944 -40 c0 -12 -15 -24 -42 -36 -24 -10 -47
-20 -51 -22 -5 -2 -7 6 -5 19 2 15 17 31 43 46 42 23 55 22 55 -7z m1273 -16
c-6 -16 -29 -19 -38 -4 -4 6 -1 17 5 26 15 18 42 0 33 -22z m-1450 -140 c22
-43 64 -102 126 -177 37 -44 152 -125 240 -170 53 -27 85 -46 71 -42 -43 12
-143 65 -205 110 -77 55 -152 135 -208 221 -42 65 -98 184 -97 208 1 6 11 -14
24 -44 12 -30 34 -78 49 -106z m1303 131 c4 -8 4 -22 0 -30 -6 -15 -8 -15 -55
12 -2 2 2 9 9 18 16 19 39 19 46 0z m-1106 -30 c0 -18 -5 -25 -19 -25 -28 0
-37 21 -16 37 27 19 35 16 35 -12z m1158 -17 c2 -11 -3 -16 -15 -14 -10 2 -20
11 -21 20 -3 13 2 17 14 14 11 -2 20 -11 22 -20z m-1218 -14 c0 -14 -31 -20
-43 -7 -8 8 25 33 35 27 5 -3 8 -12 8 -20z m1199 -22 c3 -1 -2 -9 -11 -18 -13
-14 -20 -13 -61 7 -51 25 -56 33 -30 48 15 8 51 -5 102 -37z m-1089 -13 c0 -4
-20 -22 -44 -38 -38 -27 -46 -29 -56 -16 -15 18 -16 16 36 55 28 21 42 26 51
18 7 -6 13 -14 13 -19z m-110 -81 c0 -15 -32 -21 -40 -7 -13 20 9 43 26 28 8
-6 14 -16 14 -21z m173 15 c3 -5 -6 -32 -19 -62 -22 -50 -26 -53 -40 -39 -14
14 -14 18 1 47 8 17 13 36 10 40 -3 5 1 12 7 14 20 8 36 8 41 0z m871 -56 c15
-20 25 -41 22 -46 -9 -15 -46 -20 -46 -7 0 7 -11 27 -25 46 -23 31 -23 34 -7
46 9 7 19 10 23 6 3 -4 17 -24 33 -45z m-787 -25 c-2 -4 -12 -26 -23 -49 -10
-24 -25 -43 -32 -43 -24 0 -24 31 -1 75 20 37 26 42 42 34 10 -6 17 -13 14
-17z m730 -16 c32 -45 33 -56 3 -56 -21 0 -75 74 -65 89 12 21 31 11 62 -33z
m-685 -61 c-27 -45 -37 -51 -59 -37 -9 5 -4 21 19 55 25 39 33 45 49 37 17
-10 17 -13 -9 -55z m628 20 c28 -40 29 -46 14 -52 -25 -9 -89 64 -73 84 18 21
26 16 59 -32z m-492 -52 c3 -34 -19 -63 -48 -63 -17 0 -17 2 -3 31 8 16 13 44
11 60 -4 28 -3 28 16 15 12 -7 22 -26 24 -43z m420 24 c12 -24 11 -32 -4 -55
l-17 -26 -14 47 c-9 32 -21 51 -36 57 -18 8 -15 9 18 7 33 -2 42 -7 53 -30z
m-258 -22 c0 -8 -6 -15 -14 -15 -17 0 -28 14 -19 24 12 12 33 6 33 -9z m-236
-29 c-8 -27 -11 -29 -23 -21 -6 3 -11 17 -11 30 0 18 4 22 20 18 16 -4 19 -11
14 -27z m440 -2 c14 -36 3 -44 -29 -21 -10 8 -15 19 -11 25 10 17 33 15 40 -4z
m4916 -130 c0 -63 -4 -104 -10 -104 -6 0 -10 44 -10 111 0 71 4 108 10 104 6
-3 10 -52 10 -111z m174 11 c50 -114 50 -115 37 -115 -5 0 -14 14 -21 30 -12
28 -15 30 -70 30 -55 0 -58 -2 -70 -30 -11 -26 -30 -41 -30 -24 0 15 93 214
100 214 4 0 29 -47 54 -105z m175 94 c17 -6 31 -15 31 -21 0 -6 -8 -7 -17 -3
-54 23 -103 11 -103 -24 0 -23 16 -36 55 -45 71 -17 94 -57 55 -96 -30 -30
-140 -22 -140 11 0 7 7 8 18 4 61 -26 112 -16 112 21 0 26 -1 27 -68 44 -51
13 -71 44 -52 79 19 37 58 47 109 30z m214 -30 c31 -34 36 -83 12 -129 -17
-33 -70 -54 -125 -48 l-35 3 -3 99 c-2 63 1 102 8 106 6 4 34 5 63 3 42 -4 57
-10 80 -34z m270 22 c18 -18 3 -21 -36 -9 -33 10 -41 9 -65 -9 -22 -16 -28
-29 -30 -71 -2 -41 1 -55 17 -71 23 -23 80 -28 99 -9 6 6 15 8 19 4 12 -12
-27 -36 -58 -36 -49 0 -79 18 -95 57 -27 62 -4 130 51 154 24 10 84 4 98 -10z
m677 -77 c0 -87 2 -96 20 -101 11 -3 20 -9 20 -14 0 -13 -34 -11 -48 3 -15 15
-17 208 -2 208 6 0 10 -39 10 -96z m-294 26 c13 0 24 -4 24 -10 0 -5 -11 -10
-25 -10 -22 0 -25 -4 -25 -32 0 -57 10 -78 36 -78 23 0 24 3 24 65 0 59 11 85
23 53 4 -10 7 -10 18 0 14 13 39 16 39 4 0 -4 -10 -12 -22 -17 -19 -8 -24 -20
-28 -65 l-5 -55 -37 -2 c-50 -4 -68 16 -68 78 0 37 -4 49 -15 49 -8 0 -15 5
-15 10 0 6 7 10 15 10 8 0 15 8 15 18 0 30 15 36 18 8 3 -20 9 -26 28 -26z
m-3841 -8 c-3 -3 -11 0 -18 7 -9 10 -8 11 6 5 10 -3 15 -9 12 -12z m71 7 c3
-6 1 -16 -6 -22 -10 -9 -11 -9 -5 2 4 8 2 17 -6 22 -9 6 -10 9 -2 9 6 0 15 -5
19 -11z m3524 -19 c11 -11 20 -29 20 -40 0 -18 -7 -20 -55 -20 -40 0 -55 -4
-55 -14 0 -23 28 -38 65 -34 36 4 47 -5 19 -16 -27 -10 -59 -7 -82 10 -17 12
-22 25 -22 59 0 34 5 47 22 59 31 22 64 20 88 -4z m60 11 c0 -5 14 -4 30 2 50
19 64 2 68 -79 2 -46 0 -66 -7 -59 -5 6 -11 35 -13 65 -3 50 -5 55 -27 58 -34
5 -51 -22 -51 -80 0 -26 -4 -48 -10 -48 -6 0 -10 32 -10 75 0 43 4 75 10 75 6
0 10 -4 10 -9z m409 0 c18 -12 28 -125 12 -135 -6 -4 -11 -3 -11 3 0 7 -8 7
-25 -1 -38 -17 -77 4 -73 40 3 23 9 28 48 36 55 11 52 9 44 31 -6 14 -15 16
-45 12 -22 -3 -39 -1 -39 3 0 19 65 26 89 11z m-6784 -61 c13 -5 14 -9 5 -9
-8 0 -24 4 -35 9 -13 5 -14 9 -5 9 8 0 24 -4 35 -9z m2815 -10 c0 -5 -5 -10
-11 -10 -5 0 -7 5 -4 10 3 6 8 10 11 10 2 0 4 -4 4 -10z m-2661 -16 c8 -8 -84
-2 -109 6 -16 6 -1 7 40 3 36 -3 67 -7 69 -9z m94 -11 c-13 -2 -35 -2 -50 0
-16 2 -5 4 22 4 28 0 40 -2 28 -4z m1380 -515 c26 -59 31 -93 7 -49 -16 30
-73 29 -88 -1 -6 -13 -11 -18 -11 -12 -1 16 49 124 57 124 4 0 20 -28 35 -62z
m282 42 c4 -12 1 -28 -6 -36 -9 -11 -9 -20 0 -40 17 -39 13 -42 -9 -6 -11 18
-28 32 -39 32 -15 0 -21 -8 -24 -32 -2 -18 -5 -3 -5 35 l-2 67 39 0 c31 0 41
-4 46 -20z m418 -99 c10 -11 9 -13 -3 -9 -11 3 -15 21 -16 69 -1 59 -1 60 3 9
2 -30 10 -61 16 -69z m142 84 c0 -27 -3 -30 -37 -33 -33 -3 -37 -6 -41 -35 -2
-18 -5 -1 -5 36 l-2 68 43 -3 c39 -3 42 -5 42 -33z m653 9 c2 -12 -9 -35 -23
-53 l-27 -31 26 0 c13 0 28 -4 31 -10 4 -6 -10 -10 -34 -10 -23 0 -41 4 -41
10 0 5 14 25 31 45 38 43 33 69 -11 63 -16 -2 -27 0 -24 4 3 5 20 8 37 6 24
-2 33 -9 35 -24z m97 -14 c1 -19 4 -40 8 -47 9 -14 -19 -43 -41 -43 -9 0 -24
5 -32 11 -12 8 -10 10 10 8 43 -2 50 0 50 21 0 13 -7 20 -20 20 -26 0 -26 16
1 23 31 8 17 32 -19 32 -16 0 -28 4 -25 8 3 4 19 7 36 5 29 -3 32 -6 32 -38z
m78 33 c-24 -3 -33 -9 -33 -23 0 -14 9 -20 33 -22 28 -3 32 -7 32 -32 0 -37
-25 -54 -57 -38 -22 12 -22 12 -1 8 30 -5 58 16 49 39 -5 13 -13 16 -36 11
-29 -5 -30 -4 -30 29 0 34 1 35 38 33 36 -1 36 -1 5 -5z m217 0 c0 -5 -17 -8
-37 -8 -37 0 -38 -1 -41 -40 -4 -46 14 -65 56 -58 21 4 24 2 12 -6 -56 -40
-121 49 -73 101 16 18 83 26 83 11z m591 -46 l22 -41 23 47 c14 26 27 47 29
47 3 0 4 -30 3 -67 l-1 -68 -6 54 -6 54 -17 -36 c-10 -21 -22 -37 -27 -37 -5
0 -17 17 -27 38 l-19 37 -6 -55 -6 -55 -1 68 c-2 76 6 79 39 14z m392 -66 c10
-11 9 -13 -3 -9 -11 3 -15 21 -16 69 -1 59 -1 60 3 9 2 -30 10 -61 16 -69z
m-1810 79 c8 0 8 -3 -1 -9 -16 -10 -12 -63 4 -68 6 -2 14 5 17 17 3 11 11 20
17 20 10 0 10 -3 1 -14 -9 -10 -9 -16 -1 -21 20 -13 40 4 40 34 0 23 -5 31
-22 34 -20 3 -20 4 2 3 22 -1 25 -6 28 -42 l3 -41 -53 1 -53 1 -3 38 c-3 32
-7 37 -30 38 -25 2 -25 2 -4 6 13 3 26 12 30 21 6 16 7 16 10 0 2 -10 9 -18
15 -18z m1065 -1 c15 -1 14 -2 -1 -6 -14 -4 -17 -13 -15 -36 4 -45 32 -42 38
3 4 25 11 36 25 38 18 2 18 2 3 -8 -11 -7 -18 -23 -18 -44 0 -30 -3 -33 -27
-32 -25 1 -28 5 -31 39 -2 20 -7 37 -13 37 -5 0 -4 9 3 20 10 17 14 18 16 5 2
-8 11 -16 20 -16z m-2072 -36 l16 -37 18 40 c23 49 25 38 4 -16 -9 -23 -20
-38 -25 -33 -11 11 -40 83 -34 83 3 0 13 -17 21 -37z m281 31 c-3 -3 -12 -4
-19 -1 -8 3 -5 6 6 6 11 1 17 -2 13 -5z m39 -18 c10 -39 1 -59 -27 -63 -28 -4
-55 19 -44 37 10 16 23 12 21 -7 0 -10 6 -18 14 -18 11 0 15 11 15 38 0 42 12
49 21 13z m90 -26 l2 -45 -7 40 c-5 31 -10 40 -26 40 -15 0 -22 -9 -26 -35
l-6 -35 -2 41 c-1 40 0 41 32 40 31 -1 32 -2 33 -46z m104 0 c0 -25 -5 -51
-12 -58 -14 -14 -54 -16 -62 -3 -3 4 6 6 20 3 16 -3 30 1 35 9 14 22 11 26
-20 21 -22 -3 -32 1 -40 17 -19 34 2 62 45 59 33 -2 34 -3 34 -48z m35 13 c0
-36 2 -38 30 -36 25 2 27 0 12 -8 -40 -23 -86 30 -57 66 7 8 13 15 14 15 0 0
1 -17 1 -37z m52 11 c2 -13 1 -15 -4 -4 -3 8 -11 19 -17 23 -7 6 -6 7 4 4 8
-2 16 -12 17 -23z m227 14 c-23 -37 -1 -74 38 -63 21 5 21 5 4 -6 -42 -26 -89
34 -54 69 16 16 21 15 12 0z m50 -4 c8 -22 8 -24 -6 -24 -6 0 -8 3 -5 7 4 3 2
12 -4 20 -7 8 -8 13 -1 13 5 0 13 -7 16 -16z m37 7 c-7 -5 -10 -14 -7 -20 4
-6 2 -11 -3 -11 -12 0 -15 23 -4 33 3 4 11 7 17 7 6 0 5 -4 -3 -9z m275 -41
l2 -45 -7 40 c-5 31 -11 41 -28 43 -20 3 -23 -1 -23 -32 0 -20 -4 -36 -10 -36
-5 0 -10 18 -10 41 l0 40 38 -3 c37 -3 37 -4 38 -48z m88 26 c8 -32 -1 -54
-26 -62 -23 -7 -54 18 -44 35 11 17 24 13 22 -6 0 -10 6 -18 14 -18 10 0 16
12 18 32 3 28 0 32 -25 36 -28 4 -28 4 3 6 26 1 33 -4 38 -23z m599 17 c-18
-7 -16 -60 2 -67 8 -3 22 -2 32 1 11 4 14 3 9 -5 -11 -18 -41 -14 -61 8 -15
17 -16 24 -7 45 6 14 17 25 24 24 10 0 10 -2 1 -6z m44 -19 c2 -13 1 -15 -4
-4 -3 8 -11 19 -17 23 -7 6 -6 7 4 4 8 -2 16 -12 17 -23z m89 -24 l1 -45 -4
43 c-4 38 -7 43 -26 40 -17 -2 -23 -12 -28 -43 l-6 -40 -2 48 -1 48 33 -3 c31
-3 32 -5 33 -48z m202 38 c35 -35 -15 -99 -53 -68 -15 13 -21 61 -8 73 11 11
48 8 61 -5z m380 -38 c2 -25 0 -41 -5 -37 -4 5 -6 23 -4 42 2 28 -1 34 -21 38
-21 4 -21 4 2 3 22 -1 25 -6 28 -46z m60 43 c-13 -3 -18 -15 -18 -39 0 -19 -4
-34 -10 -34 -5 0 -10 18 -10 40 0 37 2 40 28 39 16 -1 20 -3 10 -6z m29 -60
c-2 -16 -4 -5 -4 22 0 28 2 40 4 28 2 -13 2 -35 0 -50z m91 22 c3 -40 2 -41
-30 -40 -26 0 -34 4 -36 23 -3 16 2 22 15 22 15 0 16 -2 3 -10 -12 -7 -12 -12
-3 -21 9 -9 16 -9 26 -1 22 18 14 55 -14 64 -22 6 -21 7 6 5 27 -2 30 -5 33
-42z m72 32 c0 -7 6 -22 14 -33 14 -18 15 -17 30 16 8 19 15 30 16 24 0 -23
-32 -86 -40 -78 -15 16 -39 84 -29 84 5 0 9 -6 9 -13z m140 -26 c0 -32 -4 -41
-21 -46 -24 -8 -55 16 -45 34 12 19 24 12 19 -10 -5 -17 -2 -20 13 -17 13 2
20 13 22 35 3 28 0 32 -25 36 -27 4 -27 4 5 6 31 1 32 0 32 -38z m-667 2 c-7
-2 -21 -2 -30 0 -10 3 -4 5 12 5 17 0 24 -2 18 -5z m-1360 -17 c11 -27 -43
-51 -58 -26 -4 7 2 9 19 4 19 -5 26 -2 26 9 0 8 -6 18 -12 20 -8 4 -7 6 3 6 9
1 19 -5 22 -13z m1587 4 c-13 -9 -12 -12 4 -25 21 -16 10 -21 -13 -6 -16 10
-8 41 11 41 9 0 9 -3 -2 -10z m-2460 -30 c0 -5 -2 -10 -4 -10 -3 0 -8 5 -11
10 -3 6 -1 10 4 10 6 0 11 -4 11 -10z m1230 -5 c0 -8 -2 -15 -4 -15 -2 0 -6 7
-10 15 -3 8 -1 15 4 15 6 0 10 -7 10 -15z m370 0 c0 -8 -2 -15 -4 -15 -2 0 -6
7 -10 15 -3 8 -1 15 4 15 6 0 10 -7 10 -15z"/>
<path d="M4368 8823 c7 -3 16 -2 19 1 4 3 -2 6 -13 5 -11 0 -14 -3 -6 -6z"/>
<path d="M1550 8774 c0 -8 5 -12 10 -9 6 4 8 11 5 16 -9 14 -15 11 -15 -7z"/>
<path d="M1510 8739 c0 -5 5 -7 10 -4 6 3 10 8 10 11 0 2 -4 4 -10 4 -5 0 -10
-5 -10 -11z"/>
<path d="M980 8259 c0 -5 5 -7 10 -4 6 3 10 8 10 11 0 2 -4 4 -10 4 -5 0 -10
-5 -10 -11z"/>
<path d="M975 8230 c3 -5 12 -7 20 -3 21 7 19 13 -6 13 -11 0 -18 -4 -14 -10z"/>
<path d="M1550 8050 c0 -5 5 -10 11 -10 5 0 7 5 4 10 -3 6 -8 10 -11 10 -2 0
-4 -4 -4 -10z"/>
<path d="M1503 12990 c-62 -37 -72 -103 -24 -151 23 -23 38 -29 71 -29 33 0
48 6 71 29 49 50 35 122 -31 156 -38 19 -49 19 -87 -5z m75 -79 c5 -30 -10
-45 -37 -36 -21 6 -29 43 -14 59 15 15 48 1 51 -23z"/>
<path d="M8295 11729 c-8 -19 -105 -248 -214 -509 l-198 -475 218 -3 c121 -1
317 -1 438 0 l219 3 -85 195 c-253 581 -356 815 -359 819 -2 2 -10 -12 -19
-30z"/>
<path d="M6190 12047 c0 -6 285 -542 327 -615 28 -50 44 -51 115 -5 228 143
212 466 -29 585 -65 32 -67 32 -239 36 -96 3 -174 2 -174 -1z"/>
<path d="M9360 9944 c-272 -49 -484 -228 -571 -482 -63 -184 -42 -394 58 -577
53 -96 176 -219 270 -268 123 -64 175 -78 308 -84 149 -6 223 9 355 74 184 91
331 279 375 478 25 111 17 263 -19 370 -76 223 -254 397 -480 467 -60 18 -242
32 -296 22z m149 -229 c0 -14 -4 -10 -14 14 -8 18 -15 38 -15 45 1 19 29 -38
29 -59z m56 -259 c118 -50 177 -199 124 -316 -38 -85 -102 -129 -201 -137
-143 -13 -257 88 -258 230 0 69 19 120 63 165 73 76 175 98 272 58z"/>
<path d="M7182 9813 c201 -374 284 -521 290 -517 4 3 5 -1 2 -9 -18 -49 97 -4
162 62 62 63 88 123 92 211 3 59 -1 87 -18 132 -28 75 -96 150 -168 185 -55
27 -64 28 -235 31 l-178 4 53 -99z m362 -491 c3 -5 -1 -9 -9 -9 -8 0 -12 4 -9
9 3 4 7 8 9 8 2 0 6 -4 9 -8z m-29 -30 c-3 -3 -11 0 -18 7 -9 10 -8 11 6 5 10
-3 15 -9 12 -12z"/>
<path d="M6430 9080 c0 -5 5 -10 10 -10 6 0 10 5 10 10 0 6 -4 10 -10 10 -5 0
-10 -4 -10 -10z"/>
<path d="M6328 9023 c7 -3 16 -2 19 1 4 3 -2 6 -13 5 -11 0 -14 -3 -6 -6z"/>
<path d="M6375 8670 c-3 -5 -1 -10 4 -10 6 0 11 5 11 10 0 6 -2 10 -4 10 -3 0
-8 -4 -11 -10z"/>
<path d="M6440 8659 c0 -5 5 -7 10 -4 6 3 10 8 10 11 0 2 -4 4 -10 4 -5 0 -10
-5 -10 -11z"/>
<path d="M6126 8651 c-4 -5 3 -7 14 -4 23 6 26 13 6 13 -8 0 -17 -4 -20 -9z"/>
<path d="M6090 8631 c0 -6 5 -13 10 -16 6 -3 10 1 10 9 0 9 -4 16 -10 16 -5 0
-10 -4 -10 -9z"/>
<path d="M8062 7810 c-6 -14 -20 -47 -31 -73 -12 -27 -21 -53 -21 -58 0 -5 29
-9 65 -9 36 0 65 2 65 5 0 2 -15 39 -34 82 -32 73 -35 76 -44 53z"/>
<path d="M7390 8210 c-13 -9 -13 -10 0 -10 8 0 22 5 30 10 13 9 13 10 0 10 -8
0 -22 -5 -30 -10z"/>
<path d="M8893 7870 c-12 -5 -29 -22 -37 -39 -45 -86 10 -172 104 -162 32 4
60 25 76 59 42 90 -48 180 -143 142z m83 -84 c8 -32 -2 -46 -31 -46 -29 0 -47
27 -34 52 15 28 57 23 65 -6z"/>
<path d="M4739 6683 c-31 -32 -71 -78 -89 -102 l-34 -44 43 7 c58 9 95 36 120
89 24 50 37 107 24 107 -5 0 -34 -26 -64 -57z"/>
<path d="M7303 6660 c-41 -55 -79 -128 -70 -137 9 -9 76 70 97 114 35 74 21
86 -27 23z"/>
<path d="M6712 6425 c-129 -138 -228 -290 -248 -380 l-7 -30 26 24 c62 57 319
442 305 457 -3 2 -37 -30 -76 -71z"/>
<path d="M5608 6713 c-19 -15 -43 -39 -53 -52 -16 -22 19 2 114 76 2 2 -2 3
-11 3 -8 0 -30 -12 -50 -27z"/>
<path d="M8856 2908 c-31 -44 -6 -118 39 -118 26 0 55 38 55 73 0 60 -63 90
-94 45z"/>
<path d="M9206 2914 c-9 -9 -16 -32 -16 -54 0 -31 5 -43 25 -56 31 -20 63 -10
76 24 26 68 -38 133 -85 86z"/>
<path d="M8688 2853 c-25 -6 -23 -50 2 -58 34 -11 81 29 64 56 -5 9 -35 10
-66 2z"/>
<path d="M9034 2846 c-15 -12 -17 -18 -8 -33 6 -10 19 -20 28 -21 22 -5 56 26
56 50 0 23 -47 25 -76 4z"/>
<path d="M9399 2920 c-39 -22 -29 -112 13 -125 10 -4 30 0 43 9 20 13 25 25
25 56 0 58 -37 86 -81 60z"/>
<path d="M2788 2588 c-17 -14 -48 -59 -48 -69 0 -3 11 -4 24 -2 40 8 76 -38
76 -98 0 -65 14 -97 51 -117 17 -9 43 -26 58 -38 14 -12 32 -19 39 -17 6 3 12
-2 12 -11 0 -26 -34 -6 -132 75 -29 24 -32 33 -36 92 -3 53 -9 70 -28 88 -60
56 -113 -25 -114 -173 l0 -77 38 -11 c20 -7 123 -14 227 -16 l190 -5 -23 20
c-29 25 -81 40 -116 34 -18 -4 -28 0 -32 11 -3 9 -12 16 -20 16 -15 0 -31 47
-19 58 3 4 21 12 38 18 18 6 42 26 55 45 13 19 32 38 43 43 28 13 25 54 -6 68
-21 9 -27 8 -44 -13 -19 -23 -20 -23 -38 -6 -14 14 -15 20 -5 35 32 44 27 63
-11 43 -20 -10 -30 -10 -62 3 -45 19 -95 21 -117 4z"/>
<path d="M2629 2312 c-28 -24 -21 -46 20 -60 l31 -11 0 45 c0 49 -13 56 -51
26z"/>
<path d="M2990 2183 c0 -9 10 -27 22 -40 20 -21 21 -27 10 -56 -14 -40 -16
-94 -3 -101 5 -4 12 7 16 23 3 16 15 37 27 47 11 11 28 35 38 54 10 19 27 43
39 54 11 10 18 23 15 27 -3 5 -41 9 -85 9 -67 0 -79 -2 -79 -17z"/>
<path d="M8748 2560 c-38 -23 -30 -112 12 -125 36 -11 70 19 70 64 0 57 -39
86 -82 61z"/>
<path d="M9347 2552 c-23 -26 -22 -85 3 -107 26 -24 64 -13 79 23 29 69 -36
135 -82 84z"/>
<path d="M8927 2552 c-29 -32 -21 -42 32 -42 57 0 66 8 45 38 -18 27 -55 28
-77 4z"/>
<path d="M9182 2493 c-28 -6 -39 -28 -22 -48 25 -31 80 -6 80 36 0 19 -10 21
-58 12z"/>
<path d="M5313 2341 l-21 -51 39 0 c44 0 46 6 21 63 l-17 39 -22 -51z"/>
<path d="M9681 2146 c-19 -23 -24 -86 -12 -134 10 -34 16 -42 35 -42 28 0 46
40 46 99 0 67 -40 112 -69 77z"/>
<path d="M8203 1984 c-9 -23 18 -36 41 -20 32 21 31 36 -3 36 -20 0 -34 -6
-38 -16z"/>
<path d="M8338 1577 c-10 -23 -18 -46 -18 -50 0 -4 18 -7 40 -7 22 0 40 3 40
7 0 14 -33 93 -39 93 -3 0 -14 -19 -23 -43z"/>
<path d="M8678 1634 c-5 -4 -8 -45 -8 -91 l0 -83 39 0 c54 0 69 7 87 42 19 37
12 88 -15 112 -21 19 -91 33 -103 20z"/>
<path d="M9142 1564 c-34 -23 -27 -34 23 -34 49 0 55 8 27 33 -23 21 -22 21
-50 1z"/>
<path d="M9604 1495 c-8 -21 4 -35 31 -35 21 0 45 24 45 44 0 13 -71 5 -76 -9z"/>
<path d="M4472 982 c-10 -30 -10 -32 14 -32 27 0 31 17 11 45 -13 17 -15 16
-25 -13z"/>
<path d="M4730 995 c0 -21 5 -25 29 -25 29 0 42 14 34 38 -3 6 -18 12 -34 12
-24 0 -29 -4 -29 -25z"/>
<path d="M5290 995 c0 -24 3 -26 33 -23 24 2 32 8 32 23 0 15 -8 21 -32 23
-30 3 -33 1 -33 -23z"/>
<path d="M5024 965 c-9 -23 3 -45 25 -45 21 0 33 22 25 45 -4 8 -15 15 -25 15
-11 0 -22 -7 -25 -15z"/>
<path d="M6737 973 c-20 -19 0 -63 28 -63 11 0 24 40 19 54 -6 16 -35 22 -47
9z"/>
</g>
</svg>
